<svg width="20" height="24" viewBox="0 0 20 24" fill="none" xmlns="http://www.w3.org/2000/svg">
<path d="M15.875 20L13.4375 17.5833L11.6042 19.4167L11.0208 18.8333C10.7014 18.5139 10.5417 18.1181 10.5417 17.6458C10.5417 17.1736 10.7014 16.7778 11.0208 16.4583L14.5417 12.9375C14.8611 12.6181 15.257 12.4583 15.7292 12.4583C16.2014 12.4583 16.5972 12.6181 16.9167 12.9375L17.5 13.5208L15.6667 15.3542L18.0833 17.7917C18.25 17.9583 18.3333 18.1528 18.3333 18.375C18.3333 18.5972 18.25 18.7917 18.0833 18.9583L17.0417 20C16.875 20.1667 16.6806 20.25 16.4583 20.25C16.2361 20.25 16.0417 20.1667 15.875 20ZM18.3333 6.91667L8.87501 16.375L8.97917 16.4583C9.29862 16.7778 9.45834 17.1736 9.45834 17.6458C9.45834 18.1181 9.29862 18.5139 8.97917 18.8333L8.39584 19.4167L6.56251 17.5833L4.12501 20C3.95834 20.1667 3.76389 20.25 3.54167 20.25C3.31945 20.25 3.12501 20.1667 2.95834 20L1.91667 18.9583C1.75001 18.7917 1.66667 18.5972 1.66667 18.375C1.66667 18.1528 1.75001 17.9583 1.91667 17.7917L4.33334 15.3542L2.50001 13.5208L3.08334 12.9375C3.40278 12.6181 3.79862 12.4583 4.27084 12.4583C4.74306 12.4583 5.13889 12.6181 5.45834 12.9375L5.54167 13.0417L15 3.58333H18.3333V6.91667ZM5.79167 11.0417L1.66667 6.91667V3.58333H5.00001L9.12501 7.70833L7.93751 8.875L4.31251 5.25H3.33334V6.22917L6.95834 9.85417L5.79167 11.0417ZM7.70834 15.1875L16.6667 6.22917V5.25H15.6875L6.72917 14.2083L7.70834 15.1875Z" fill="#9CA3AF"/>
</svg>
