<svg width="27" height="27" viewBox="0 0 27 27" fill="none" xmlns="http://www.w3.org/2000/svg">
<path d="M6.75 22.5C7.375 22.5 7.90625 22.2812 8.34375 21.8438C8.78125 21.4062 9 20.875 9 20.25C9 19.625 8.78125 19.0938 8.34375 18.6562C7.90625 18.2188 7.375 18 6.75 18C6.125 18 5.59375 18.2188 5.15625 18.6562C4.71875 19.0938 4.5 19.625 4.5 20.25C4.5 20.875 4.71875 21.4062 5.15625 21.8438C5.59375 22.2812 6.125 22.5 6.75 22.5V22.5M6.75 9C7.375 9 7.90625 8.78125 8.34375 8.34375C8.78125 7.90625 9 7.375 9 6.75C9 6.125 8.78125 5.59375 8.34375 5.15625C7.90625 4.71875 7.375 4.5 6.75 4.5C6.125 4.5 5.59375 4.71875 5.15625 5.15625C4.71875 5.59375 4.5 6.125 4.5 6.75C4.5 7.375 4.71875 7.90625 5.15625 8.34375C5.59375 8.78125 6.125 9 6.75 9V9M13.5 15.75C14.125 15.75 14.6562 15.5312 15.0938 15.0938C15.5312 14.6562 15.75 14.125 15.75 13.5C15.75 12.875 15.5312 12.3438 15.0938 11.9062C14.6562 11.4688 14.125 11.25 13.5 11.25C12.875 11.25 12.3438 11.4688 11.9062 11.9062C11.4688 12.3438 11.25 12.875 11.25 13.5C11.25 14.125 11.4688 14.6562 11.9062 15.0938C12.3438 15.5312 12.875 15.75 13.5 15.75V15.75M20.25 22.5C20.875 22.5 21.4062 22.2812 21.8438 21.8438C22.2812 21.4062 22.5 20.875 22.5 20.25C22.5 19.625 22.2812 19.0938 21.8438 18.6562C21.4062 18.2188 20.875 18 20.25 18C19.625 18 19.0938 18.2188 18.6562 18.6562C18.2188 19.0938 18 19.625 18 20.25C18 20.875 18.2188 21.4062 18.6562 21.8438C19.0938 22.2812 19.625 22.5 20.25 22.5V22.5M20.25 9C20.875 9 21.4062 8.78125 21.8438 8.34375C22.2812 7.90625 22.5 7.375 22.5 6.75C22.5 6.125 22.2812 5.59375 21.8438 5.15625C21.4062 4.71875 20.875 4.5 20.25 4.5C19.625 4.5 19.0938 4.71875 18.6562 5.15625C18.2188 5.59375 18 6.125 18 6.75C18 7.375 18.2188 7.90625 18.6562 8.34375C19.0938 8.78125 19.625 9 20.25 9V9M3 27C2.175 27 1.46875 26.7062 0.88125 26.1187C0.29375 25.5312 0 24.825 0 24V3C0 2.175 0.29375 1.46875 0.88125 0.88125C1.46875 0.29375 2.175 0 3 0H24C24.825 0 25.5312 0.29375 26.1187 0.88125C26.7062 1.46875 27 2.175 27 3V24C27 24.825 26.7062 25.5312 26.1187 26.1187C25.5312 26.7062 24.825 27 24 27H3V27M3 24H24V24V24V3V3V3H3V3V3V24V24V24V24M3 3V3V3V3V24V24V24V24V24V24V3V3V3V3" fill="#94A3B8"/>
</svg>
