<svg width="30" height="30" viewBox="0 0 30 30" fill="none" xmlns="http://www.w3.org/2000/svg">
<path d="M6 30V23.625C5.025 23.2 4.16875 22.6313 3.43125 21.9188C2.69375 21.2063 2.06875 20.4 1.55625 19.5C1.04375 18.6 0.65625 17.6375 0.39375 16.6125C0.13125 15.5875 0 14.55 0 13.5C0 9.55 1.4 6.3125 4.2 3.7875C7 1.2625 10.6 0 15 0C19.4 0 23 1.2625 25.8 3.7875C28.6 6.3125 30 9.55 30 13.5C30 14.55 29.8688 15.5875 29.6063 16.6125C29.3438 17.6375 28.9563 18.6 28.4438 19.5C27.9313 20.4 27.3063 21.2063 26.5688 21.9188C25.8313 22.6313 24.975 23.2 24 23.625V30H6V30M9 27H10.5V24H13.5V27H16.5V24H19.5V27H21V21.675C21.95 21.45 22.7937 21.075 23.5312 20.55C24.2688 20.025 24.8938 19.4 25.4062 18.675C25.9187 17.95 26.3125 17.15 26.5875 16.275C26.8625 15.4 27 14.475 27 13.5C27 10.375 25.8937 7.84375 23.6812 5.90625C21.4687 3.96875 18.575 3 15 3C11.425 3 8.53125 3.96875 6.31875 5.90625C4.10625 7.84375 3 10.375 3 13.5C3 14.475 3.1375 15.4 3.4125 16.275C3.6875 17.15 4.08125 17.95 4.59375 18.675C5.10625 19.4 5.7375 20.025 6.4875 20.55C7.2375 21.075 8.075 21.45 9 21.675V27V27M12.75 19.5H17.25L15 15L12.75 19.5V19.5M9.75 16.5C10.575 16.5 11.2812 16.2062 11.8687 15.6187C12.4562 15.0312 12.75 14.325 12.75 13.5C12.75 12.675 12.4562 11.9688 11.8687 11.3813C11.2812 10.7938 10.575 10.5 9.75 10.5C8.925 10.5 8.21875 10.7938 7.63125 11.3813C7.04375 11.9688 6.75 12.675 6.75 13.5C6.75 14.325 7.04375 15.0312 7.63125 15.6187C8.21875 16.2062 8.925 16.5 9.75 16.5V16.5M20.25 16.5C21.075 16.5 21.7812 16.2062 22.3687 15.6187C22.9562 15.0312 23.25 14.325 23.25 13.5C23.25 12.675 22.9562 11.9688 22.3687 11.3813C21.7812 10.7938 21.075 10.5 20.25 10.5C19.425 10.5 18.7188 10.7938 18.1313 11.3813C17.5438 11.9688 17.25 12.675 17.25 13.5C17.25 14.325 17.5438 15.0312 18.1313 15.6187C18.7188 16.2062 19.425 16.5 20.25 16.5V16.5M15 27V27V27V27V27V27V27V27V27V27V27V27V27V27V27V27V27V27V27V27V27V27V27V27V27" fill="#94A3B8"/>
</svg>
