<svg width="30" height="30" viewBox="0 0 30 30" fill="none" xmlns="http://www.w3.org/2000/svg">
<path d="M8.7 29.25H3C2.175 29.25 1.46875 28.9562 0.88125 28.3687C0.29375 27.7812 0 27.075 0 26.25V20.55C1.2 20.55 2.25 20.1687 3.15 19.4062C4.05 18.6438 4.5 17.675 4.5 16.5C4.5 15.325 4.05 14.3562 3.15 13.5938C2.25 12.8313 1.2 12.45 0 12.45V6.75C0 5.925 0.29375 5.21875 0.88125 4.63125C1.46875 4.04375 2.175 3.75 3 3.75H9C9 2.7 9.3625 1.8125 10.0875 1.0875C10.8125 0.3625 11.7 0 12.75 0C13.8 0 14.6875 0.3625 15.4125 1.0875C16.1375 1.8125 16.5 2.7 16.5 3.75H22.5C23.325 3.75 24.0312 4.04375 24.6187 4.63125C25.2062 5.21875 25.5 5.925 25.5 6.75V12.75C26.55 12.75 27.4375 13.1125 28.1625 13.8375C28.8875 14.5625 29.25 15.45 29.25 16.5C29.25 17.55 28.8875 18.4375 28.1625 19.1625C27.4375 19.8875 26.55 20.25 25.5 20.25V26.25C25.5 27.075 25.2062 27.7812 24.6187 28.3687C24.0312 28.9562 23.325 29.25 22.5 29.25H16.8C16.8 28 16.4062 26.9375 15.6187 26.0625C14.8312 25.1875 13.875 24.75 12.75 24.75C11.625 24.75 10.6688 25.1875 9.88125 26.0625C9.09375 26.9375 8.7 28 8.7 29.25V29.25M3 26.25H6.1875C6.7875 24.6 7.75 23.4375 9.075 22.7625C10.4 22.0875 11.625 21.75 12.75 21.75C13.875 21.75 15.1 22.0875 16.425 22.7625C17.75 23.4375 18.7125 24.6 19.3125 26.25H22.5V17.25H25.5C25.7 17.25 25.875 17.175 26.025 17.025C26.175 16.875 26.25 16.7 26.25 16.5C26.25 16.3 26.175 16.125 26.025 15.975C25.875 15.825 25.7 15.75 25.5 15.75H22.5V6.75H13.5V3.75C13.5 3.55 13.425 3.375 13.275 3.225C13.125 3.075 12.95 3 12.75 3C12.55 3 12.375 3.075 12.225 3.225C12.075 3.375 12 3.55 12 3.75V6.75H3V10.05C4.35 10.55 5.4375 11.3875 6.2625 12.5625C7.0875 13.7375 7.5 15.05 7.5 16.5C7.5 17.925 7.0875 19.225 6.2625 20.4C5.4375 21.575 4.35 22.425 3 22.95V26.25V26.25M12.75 16.5V16.5V16.5V16.5V16.5V16.5V16.5V16.5V16.5V16.5V16.5V16.5V16.5V16.5V16.5V16.5V16.5V16.5V16.5V16.5V16.5V16.5V16.5V16.5V16.5V16.5V16.5V16.5V16.5V16.5" fill="#94A3B8"/>
</svg>
