<svg width="15" height="16" viewBox="0 0 15 16" fill="none" xmlns="http://www.w3.org/2000/svg">
<path d="M3.11911 13.5459C2.81377 13.5459 2.55238 13.4372 2.33495 13.2197C2.11751 13.0023 2.00879 12.7409 2.00879 12.4356V4.66335C2.00879 4.35801 2.11751 4.09662 2.33495 3.87919C2.55238 3.66175 2.81377 3.55303 3.11911 3.55303H3.67427V2.44271H4.78459V3.55303H9.22586V2.44271H10.3362V3.55303H10.8913C11.1967 3.55303 11.4581 3.66175 11.6755 3.87919C11.8929 4.09662 12.0017 4.35801 12.0017 4.66335V12.4356C12.0017 12.7409 11.8929 13.0023 11.6755 13.2197C11.4581 13.4372 11.1967 13.5459 10.8913 13.5459H3.11911ZM3.11911 12.4356H10.8913V6.88399H3.11911V12.4356ZM3.11911 5.77367H10.8913V4.66335H3.11911V5.77367Z" fill="#795D99"/>
</svg>
