<svg width="25" height="28" viewBox="0 0 25 28" fill="none" xmlns="http://www.w3.org/2000/svg">
<path d="M5.20242 23.7125C4.66792 23.7125 4.21036 23.5221 3.82973 23.1415C3.4491 22.7609 3.25879 22.3033 3.25879 21.7688V8.16338C3.25879 7.62888 3.4491 7.17132 3.82973 6.79069C4.21036 6.41006 4.66792 6.21975 5.20242 6.21975H6.17424V4.27611H8.11788V6.21975H15.8924V4.27611H17.8361V6.21975H18.8079C19.3424 6.21975 19.7999 6.41006 20.1806 6.79069C20.5612 7.17132 20.7515 7.62888 20.7515 8.16338V21.7688C20.7515 22.3033 20.5612 22.7609 20.1806 23.1415C19.7999 23.5221 19.3424 23.7125 18.8079 23.7125H5.20242ZM5.20242 21.7688H18.8079V12.0507H5.20242V21.7688ZM5.20242 10.107H18.8079V8.16338H5.20242V10.107ZM12.0051 15.9379C11.7298 15.9379 11.499 15.8448 11.3127 15.6585C11.1265 15.4723 11.0333 15.2415 11.0333 14.9661C11.0333 14.6908 11.1265 14.46 11.3127 14.2737C11.499 14.0874 11.7298 13.9943 12.0051 13.9943C12.2805 13.9943 12.5113 14.0874 12.6976 14.2737C12.8838 14.46 12.977 14.6908 12.977 14.9661C12.977 15.2415 12.8838 15.4723 12.6976 15.6585C12.5113 15.8448 12.2805 15.9379 12.0051 15.9379ZM8.11788 15.9379C7.84253 15.9379 7.61172 15.8448 7.42546 15.6585C7.23919 15.4723 7.14606 15.2415 7.14606 14.9661C7.14606 14.6908 7.23919 14.46 7.42546 14.2737C7.61172 14.0874 7.84253 13.9943 8.11788 13.9943C8.39322 13.9943 8.62403 14.0874 8.8103 14.2737C8.99656 14.46 9.08969 14.6908 9.08969 14.9661C9.08969 15.2415 8.99656 15.4723 8.8103 15.6585C8.62403 15.8448 8.39322 15.9379 8.11788 15.9379ZM15.8924 15.9379C15.6171 15.9379 15.3863 15.8448 15.2 15.6585C15.0137 15.4723 14.9206 15.2415 14.9206 14.9661C14.9206 14.6908 15.0137 14.46 15.2 14.2737C15.3863 14.0874 15.6171 13.9943 15.8924 13.9943C16.1678 13.9943 16.3986 14.0874 16.5848 14.2737C16.7711 14.46 16.8642 14.6908 16.8642 14.9661C16.8642 15.2415 16.7711 15.4723 16.5848 15.6585C16.3986 15.8448 16.1678 15.9379 15.8924 15.9379ZM12.0051 19.8252C11.7298 19.8252 11.499 19.7321 11.3127 19.5458C11.1265 19.3595 11.0333 19.1287 11.0333 18.8534C11.0333 18.578 11.1265 18.3472 11.3127 18.161C11.499 17.9747 11.7298 17.8816 12.0051 17.8816C12.2805 17.8816 12.5113 17.9747 12.6976 18.161C12.8838 18.3472 12.977 18.578 12.977 18.8534C12.977 19.1287 12.8838 19.3595 12.6976 19.5458C12.5113 19.7321 12.2805 19.8252 12.0051 19.8252ZM8.11788 19.8252C7.84253 19.8252 7.61172 19.7321 7.42546 19.5458C7.23919 19.3595 7.14606 19.1287 7.14606 18.8534C7.14606 18.578 7.23919 18.3472 7.42546 18.161C7.61172 17.9747 7.84253 17.8816 8.11788 17.8816C8.39322 17.8816 8.62403 17.9747 8.8103 18.161C8.99656 18.3472 9.08969 18.578 9.08969 18.8534C9.08969 19.1287 8.99656 19.3595 8.8103 19.5458C8.62403 19.7321 8.39322 19.8252 8.11788 19.8252ZM15.8924 19.8252C15.6171 19.8252 15.3863 19.7321 15.2 19.5458C15.0137 19.3595 14.9206 19.1287 14.9206 18.8534C14.9206 18.578 15.0137 18.3472 15.2 18.161C15.3863 17.9747 15.6171 17.8816 15.8924 17.8816C16.1678 17.8816 16.3986 17.9747 16.5848 18.161C16.7711 18.3472 16.8642 18.578 16.8642 18.8534C16.8642 19.1287 16.7711 19.3595 16.5848 19.5458C16.3986 19.7321 16.1678 19.8252 15.8924 19.8252Z" fill="#C084FC"/>
</svg>
