<svg width="25" height="28" viewBox="0 0 25 28" fill="none" xmlns="http://www.w3.org/2000/svg">
<path d="M5.83497 12.077L7.73035 12.8789C7.95714 12.4253 8.19204 11.9879 8.43504 11.5667C8.67803 11.1455 8.94533 10.7243 9.23692 10.3032L7.87614 10.0359L5.83497 12.077ZM9.28552 14.0939L12.0557 16.8398C12.7361 16.5806 13.4651 16.1837 14.2427 15.6491C15.0202 15.1145 15.7492 14.507 16.4296 13.8266C17.5636 12.6926 18.4505 11.4331 19.0904 10.048C19.7303 8.66292 20.0098 7.38719 19.9288 6.22081C18.7624 6.13981 17.4826 6.41926 16.0894 7.05915C14.6962 7.69904 13.4327 8.58598 12.2987 9.71996C11.6183 10.4003 11.0108 11.1293 10.4762 11.9069C9.94161 12.6845 9.54472 13.4135 9.28552 14.0939ZM13.6109 12.5144C13.2383 12.1418 13.052 11.6842 13.052 11.1415C13.052 10.5988 13.2383 10.1412 13.6109 9.76856C13.9835 9.39596 14.4452 9.20967 14.9959 9.20967C15.5467 9.20967 16.0084 9.39596 16.381 9.76856C16.7536 10.1412 16.9399 10.5988 16.9399 11.1415C16.9399 11.6842 16.7536 12.1418 16.381 12.5144C16.0084 12.887 15.5467 13.0733 14.9959 13.0733C14.4452 13.0733 13.9835 12.887 13.6109 12.5144ZM14.0726 20.3146L16.1137 18.2734L15.8464 16.9127C15.4252 17.2043 15.004 17.4675 14.5828 17.7024C14.1617 17.9373 13.7243 18.1681 13.2707 18.3949L14.0726 20.3146ZM21.6783 4.44694C21.9861 6.40711 21.7958 8.31463 21.1073 10.1695C20.4188 12.0244 19.2322 13.7942 17.5474 15.479L18.0334 17.8846C18.0982 18.2086 18.082 18.5245 17.9848 18.8323C17.8876 19.1401 17.7256 19.4074 17.4988 19.6342L13.4165 23.7166L11.3753 18.9295L7.22005 14.7743L2.43302 12.7331L6.49106 8.65077C6.71786 8.42398 6.98921 8.26198 7.3051 8.16478C7.621 8.06758 7.94094 8.05138 8.26494 8.11618L10.6706 8.60217C12.3554 6.9174 14.1212 5.72672 15.9679 5.03013C17.8147 4.33354 19.7182 4.13914 21.6783 4.44694ZM4.1583 17.8603C4.72529 17.2934 5.41783 17.0058 6.23592 16.9977C7.05401 16.9896 7.74655 17.2691 8.31354 17.836C8.88053 18.403 9.15998 19.0956 9.15188 19.9137C9.14378 20.7318 8.85623 21.4243 8.28924 21.9913C7.88424 22.3963 7.2079 22.7446 6.26022 23.0362C5.31253 23.3278 4.0044 23.587 2.33582 23.8138C2.56262 22.1452 2.82182 20.837 3.11341 19.8894C3.40501 18.9417 3.7533 18.2653 4.1583 17.8603ZM5.54338 19.2211C5.38138 19.3831 5.21938 19.6788 5.05738 20.1081C4.89539 20.5374 4.78199 20.9707 4.71719 21.4081C5.15458 21.3433 5.58793 21.2339 6.01722 21.08C6.44651 20.9261 6.74216 20.7682 6.90416 20.6062C7.09856 20.4118 7.20385 20.1769 7.22005 19.9015C7.23625 19.6261 7.14715 19.3912 6.95276 19.1968C6.75836 19.0024 6.52346 18.9093 6.24807 18.9174C5.97267 18.9255 5.73777 19.0267 5.54338 19.2211Z" fill="white"/>
</svg>
