<svg width="25" height="28" viewBox="0 0 25 28" fill="none" xmlns="http://www.w3.org/2000/svg">
<path d="M11.9127 23.7222L16.3363 12.0555H18.3779L22.8015 23.7222H20.7599L19.7147 20.7569H14.9995L13.9543 23.7222H11.9127ZM4.2321 20.8055L2.87099 19.4444L7.78071 14.5347C7.21358 13.9675 6.69911 13.3194 6.2373 12.5902C5.7755 11.8611 5.35015 11.0347 4.96126 10.1111H7.00293C7.327 10.743 7.65108 11.2939 7.97515 11.7638C8.29923 12.2337 8.68812 12.7036 9.14182 13.1736C9.67654 12.6388 10.2315 11.8894 10.8067 10.9253C11.382 9.96117 11.8154 9.04161 12.1071 8.16661H1.31543V6.22217H8.12099V4.27772H10.0654V6.22217H16.871V8.16661H14.0515C13.7113 9.33328 13.2008 10.5324 12.5203 11.7638C11.8397 12.9953 11.1673 13.9351 10.5029 14.5833L12.8363 16.9652L12.1071 18.9583L9.14182 15.9201L4.2321 20.8055ZM15.6071 19.0555H19.1071L17.3571 14.0972L15.6071 19.0555Z" fill="#C99BFF"/>
</svg>
