<svg width="33" height="27" viewBox="0 0 33 27" fill="none" xmlns="http://www.w3.org/2000/svg">
<path d="M0 27V9H3V12H6V0H9V3H12V0H15V3H18V0H21V3H24V0H27V12H30V9H33V27H19.5V22.5C19.5 21.675 19.2062 20.9688 18.6187 20.3813C18.0312 19.7938 17.325 19.5 16.5 19.5C15.675 19.5 14.9688 19.7938 14.3813 20.3813C13.7938 20.9688 13.5 21.675 13.5 22.5V27H0V27M3 24H10.5V22.5C10.5 20.85 11.0875 19.4375 12.2625 18.2625C13.4375 17.0875 14.85 16.5 16.5 16.5C18.15 16.5 19.5625 17.0875 20.7375 18.2625C21.9125 19.4375 22.5 20.85 22.5 22.5V24H30V15H24V6H9V15H3V24V24M12 13.5H15V9H12V13.5V13.5M18 13.5H21V9H18V13.5V13.5M16.5 15V15V15V15V15V15V15V15V15V15V15V15V15V15V15V15V15" fill="#94A3B8"/>
</svg>
