<svg width="25" height="28" viewBox="0 0 25 28" fill="none" xmlns="http://www.w3.org/2000/svg">
<path d="M17.8432 14.9723V13.0278H21.732V14.9723H17.8432ZM19.0098 21.7778L15.8987 19.4445L17.0654 17.8889L20.1765 20.2223L19.0098 21.7778ZM17.0654 10.1112L15.8987 8.55561L19.0098 6.22228L20.1765 7.77783L17.0654 10.1112ZM5.20426 20.8056V16.9167H4.23204C3.69732 16.9167 3.23957 16.7263 2.85878 16.3455C2.47799 15.9648 2.2876 15.507 2.2876 14.9723V13.0278C2.2876 12.4931 2.47799 12.0354 2.85878 11.6546C3.23957 11.2738 3.69732 11.0834 4.23204 11.0834H8.12093L12.982 8.16672V19.8334L8.12093 16.9167H7.14871V20.8056H5.20426ZM11.0376 16.382V11.6181L8.65565 13.0278H4.23204V14.9723H8.65565L11.0376 16.382ZM13.9543 17.257V10.7431C14.3918 11.132 14.7442 11.606 15.0116 12.165C15.2789 12.724 15.4126 13.3357 15.4126 14.0001C15.4126 14.6644 15.2789 15.2761 15.0116 15.8351C14.7442 16.3942 14.3918 16.8681 13.9543 17.257Z" fill="#FAF8FF"/>
</svg>
