<svg width="25" height="28" viewBox="0 0 25 28" fill="none" xmlns="http://www.w3.org/2000/svg">
<path d="M4.23253 21.7778C3.69781 21.7778 3.24005 21.5874 2.85927 21.2067C2.47848 20.8259 2.28809 20.3681 2.28809 19.8334V8.16672C2.28809 7.632 2.47848 7.17424 2.85927 6.79346C3.24005 6.41267 3.69781 6.22228 4.23253 6.22228H19.7881C20.3228 6.22228 20.7806 6.41267 21.1614 6.79346C21.5421 7.17424 21.7325 7.632 21.7325 8.16672V19.8334C21.7325 20.3681 21.5421 20.8259 21.1614 21.2067C20.7806 21.5874 20.3228 21.7778 19.7881 21.7778H4.23253ZM12.0103 14.9723L4.23253 10.1112V19.8334H19.7881V10.1112L12.0103 14.9723ZM12.0103 13.0278L19.7881 8.16672H4.23253L12.0103 13.0278Z" fill="#C99BFF"/>
</svg>
