<svg width="20" height="24" viewBox="0 0 20 24" fill="none" xmlns="http://www.w3.org/2000/svg">
<path d="M5 13.6666C5 14.3888 5.14583 15.0728 5.4375 15.7187C5.72917 16.3645 6.14583 16.9305 6.6875 17.4166C6.67361 17.3471 6.66667 17.2846 6.66667 17.2291C6.66667 17.1735 6.66667 17.111 6.66667 17.0416C6.66667 16.5971 6.75 16.1805 6.91667 15.7916C7.08333 15.4027 7.32639 15.0485 7.64583 14.7291L10 12.4166L12.3542 14.7291C12.6736 15.0485 12.9167 15.4027 13.0833 15.7916C13.25 16.1805 13.3333 16.5971 13.3333 17.0416C13.3333 17.111 13.3333 17.1735 13.3333 17.2291C13.3333 17.2846 13.3264 17.3471 13.3125 17.4166C13.8542 16.9305 14.2708 16.3645 14.5625 15.7187C14.8542 15.0728 15 14.3888 15 13.6666C15 12.9721 14.8715 12.3159 14.6146 11.6978C14.3576 11.0798 13.9861 10.5277 13.5 10.0416C13.2222 10.2221 12.9306 10.3576 12.625 10.4478C12.3194 10.5381 12.0069 10.5833 11.6875 10.5833C10.8264 10.5833 10.0799 10.2985 9.44792 9.72908C8.81597 9.15964 8.45139 8.45825 8.35417 7.62492C7.8125 8.08325 7.33333 8.55895 6.91667 9.052C6.5 9.54506 6.1493 10.0451 5.86458 10.552C5.57986 11.0589 5.36458 11.5763 5.21875 12.1041C5.07292 12.6319 5 13.1527 5 13.6666ZM10 14.7499L8.8125 15.9166C8.65972 16.0694 8.54167 16.243 8.45833 16.4374C8.375 16.6319 8.33333 16.8333 8.33333 17.0416C8.33333 17.486 8.49653 17.868 8.82292 18.1874C9.1493 18.5069 9.54167 18.6666 10 18.6666C10.4583 18.6666 10.8507 18.5069 11.1771 18.1874C11.5035 17.868 11.6667 17.486 11.6667 17.0416C11.6667 16.8194 11.625 16.6145 11.5417 16.427C11.4583 16.2395 11.3403 16.0694 11.1875 15.9166L10 14.7499ZM10 4.49992V7.24992C10 7.72214 10.1632 8.11797 10.4896 8.43742C10.816 8.75686 11.2153 8.91658 11.6875 8.91658C11.9375 8.91658 12.1701 8.8645 12.3854 8.76033C12.6007 8.65617 12.7917 8.49992 12.9583 8.29158L13.3333 7.83325C14.3611 8.41658 15.1736 9.22908 15.7708 10.2708C16.3681 11.3124 16.6667 12.4444 16.6667 13.6666C16.6667 15.5277 16.0208 17.1041 14.7292 18.3958C13.4375 19.6874 11.8611 20.3333 10 20.3333C8.13889 20.3333 6.5625 19.6874 5.27083 18.3958C3.97917 17.1041 3.33333 15.5277 3.33333 13.6666C3.33333 11.8749 3.93403 10.1735 5.13542 8.56242C6.3368 6.95131 7.95833 5.59714 10 4.49992Z" fill="url(#paint0_linear_169_1617)"/>
<defs>
<linearGradient id="paint0_linear_169_1617" x1="10" y1="4.49992" x2="10" y2="20.3333" gradientUnits="userSpaceOnUse">
<stop stop-color="white"/>
<stop offset="0.793269" stop-color="#C99BFF"/>
</linearGradient>
</defs>
</svg>
