<svg width="16" height="20" viewBox="0 0 16 20" fill="none" xmlns="http://www.w3.org/2000/svg">
<path d="M7.99984 12.6665C8.83317 12.6665 9.5415 12.3748 10.1248 11.7915C10.7082 11.2082 10.9998 10.4998 10.9998 9.6665C10.9998 8.83317 10.7082 8.12484 10.1248 7.5415C9.5415 6.95817 8.83317 6.6665 7.99984 6.6665C7.1665 6.6665 6.45817 6.95817 5.87484 7.5415C5.2915 8.12484 4.99984 8.83317 4.99984 9.6665C4.99984 10.4998 5.2915 11.2082 5.87484 11.7915C6.45817 12.3748 7.1665 12.6665 7.99984 12.6665ZM7.99984 11.4665C7.49984 11.4665 7.07484 11.2915 6.72484 10.9415C6.37484 10.5915 6.19984 10.1665 6.19984 9.6665C6.19984 9.1665 6.37484 8.7415 6.72484 8.3915C7.07484 8.0415 7.49984 7.8665 7.99984 7.8665C8.49984 7.8665 8.92484 8.0415 9.27484 8.3915C9.62484 8.7415 9.79984 9.1665 9.79984 9.6665C9.79984 10.1665 9.62484 10.5915 9.27484 10.9415C8.92484 11.2915 8.49984 11.4665 7.99984 11.4665ZM7.99984 14.6665C6.37762 14.6665 4.89984 14.2137 3.5665 13.3082C2.23317 12.4026 1.2665 11.1887 0.666504 9.6665C1.2665 8.14428 2.23317 6.93039 3.5665 6.02484C4.89984 5.11928 6.37762 4.6665 7.99984 4.6665C9.62206 4.6665 11.0998 5.11928 12.4332 6.02484C13.7665 6.93039 14.7332 8.14428 15.3332 9.6665C14.7332 11.1887 13.7665 12.4026 12.4332 13.3082C11.0998 14.2137 9.62206 14.6665 7.99984 14.6665ZM7.99984 13.3332C9.25539 13.3332 10.4082 13.0026 11.4582 12.3415C12.5082 11.6804 13.3109 10.7887 13.8665 9.6665C13.3109 8.54428 12.5082 7.65261 11.4582 6.9915C10.4082 6.33039 9.25539 5.99984 7.99984 5.99984C6.74428 5.99984 5.5915 6.33039 4.5415 6.9915C3.4915 7.65261 2.68873 8.54428 2.13317 9.6665C2.68873 10.7887 3.4915 11.6804 4.5415 12.3415C5.5915 13.0026 6.74428 13.3332 7.99984 13.3332Z" fill="#9CA3AF"/>
</svg>
