<svg width="25" height="28" viewBox="0 0 25 28" fill="none" xmlns="http://www.w3.org/2000/svg">
<path d="M4.23229 21.7778C3.69756 21.7778 3.23981 21.5874 2.85902 21.2067C2.47824 20.8259 2.28784 20.3681 2.28784 19.8334V8.16672C2.28784 7.632 2.47824 7.17424 2.85902 6.79346C3.23981 6.41267 3.69756 6.22228 4.23229 6.22228H19.7878C20.3226 6.22228 20.7803 6.41267 21.1611 6.79346C21.5419 7.17424 21.7323 7.632 21.7323 8.16672V19.8334C21.7323 20.3681 21.5419 20.8259 21.1611 21.2067C20.7803 21.5874 20.3226 21.7778 19.7878 21.7778H4.23229ZM12.0101 14.9723L4.23229 10.1112V19.8334H19.7878V10.1112L12.0101 14.9723ZM12.0101 13.0278L19.7878 8.16672H4.23229L12.0101 13.0278Z" fill="#FAF8FF"/>
</svg>
