<svg width="36" height="44" viewBox="0 0 36 44" fill="none" xmlns="http://www.w3.org/2000/svg">
<path d="M14.5125 24.55L15.825 20.275L12.375 17.5H16.65L18 13.3L19.35 17.5H23.625L20.1375 20.275L21.45 24.55L18 21.8875L14.5125 24.55ZM9 38.5V26.9125C8.05 25.8625 7.3125 24.6625 6.7875 23.3125C6.2625 21.9625 6 20.525 6 19C6 15.65 7.1625 12.8125 9.4875 10.4875C11.8125 8.1625 14.65 7 18 7C21.35 7 24.1875 8.1625 26.5125 10.4875C28.8375 12.8125 30 15.65 30 19C30 20.525 29.7375 21.9625 29.2125 23.3125C28.6875 24.6625 27.95 25.8625 27 26.9125V38.5L18 35.5L9 38.5ZM18 28C20.5 28 22.625 27.125 24.375 25.375C26.125 23.625 27 21.5 27 19C27 16.5 26.125 14.375 24.375 12.625C22.625 10.875 20.5 10 18 10C15.5 10 13.375 10.875 11.625 12.625C9.875 14.375 9 16.5 9 19C9 21.5 9.875 23.625 11.625 25.375C13.375 27.125 15.5 28 18 28ZM12 34.0375L18 32.5L24 34.0375V29.3875C23.125 29.8875 22.1813 30.2812 21.1688 30.5687C20.1563 30.8562 19.1 31 18 31C16.9 31 15.8438 30.8562 14.8313 30.5687C13.8188 30.2812 12.875 29.8875 12 29.3875V34.0375Z" fill="#F2B90D"/>
</svg>
