<svg width="25" height="28" viewBox="0 0 25 28" fill="none" xmlns="http://www.w3.org/2000/svg">
<path d="M6.17662 23.7222C5.6419 23.7222 5.18415 23.5318 4.80336 23.151C4.42257 22.7702 4.23218 22.3124 4.23218 21.7777V12.0555C4.23218 11.5208 4.42257 11.063 4.80336 10.6822C5.18415 10.3014 5.6419 10.1111 6.17662 10.1111H7.14884V8.16661C7.14884 6.8217 7.6228 5.67529 8.57072 4.72738C9.51864 3.77946 10.665 3.3055 12.01 3.3055C13.3549 3.3055 14.5013 3.77946 15.4492 4.72738C16.3971 5.67529 16.8711 6.8217 16.8711 8.16661V10.1111H17.8433C18.378 10.1111 18.8358 10.3014 19.2166 10.6822C19.5973 11.063 19.7877 11.5208 19.7877 12.0555V21.7777C19.7877 22.3124 19.5973 22.7702 19.2166 23.151C18.8358 23.5318 18.378 23.7222 17.8433 23.7222H6.17662ZM6.17662 21.7777H17.8433V12.0555H6.17662V21.7777ZM12.01 18.8611C12.5447 18.8611 13.0024 18.6707 13.3832 18.2899C13.764 17.9091 13.9544 17.4513 13.9544 16.9166C13.9544 16.3819 13.764 15.9241 13.3832 15.5433C13.0024 15.1626 12.5447 14.9722 12.01 14.9722C11.4752 14.9722 11.0175 15.1626 10.6367 15.5433C10.2559 15.9241 10.0655 16.3819 10.0655 16.9166C10.0655 17.4513 10.2559 17.9091 10.6367 18.2899C11.0175 18.6707 11.4752 18.8611 12.01 18.8611ZM9.09329 10.1111H14.9266V8.16661C14.9266 7.35643 14.6431 6.66777 14.0759 6.10064C13.5088 5.53351 12.8201 5.24994 12.01 5.24994C11.1998 5.24994 10.5111 5.53351 9.94398 6.10064C9.37685 6.66777 9.09329 7.35643 9.09329 8.16661V10.1111Z" fill="#FAF8FF"/>
</svg>
