<svg width="21" height="30" viewBox="0 0 21 30" fill="none" xmlns="http://www.w3.org/2000/svg">
<path d="M10.5 30C7.6 30 5.125 28.975 3.075 26.925C1.025 24.875 0 22.4 0 19.5V10.5C0 7.6 1.025 5.125 3.075 3.075C5.125 1.025 7.6 0 10.5 0C13.4 0 15.875 1.025 17.925 3.075C19.975 5.125 21 7.6 21 10.5V19.5C21 22.4 19.975 24.875 17.925 26.925C15.875 28.975 13.4 30 10.5 30V30M12 10.5H18C18 8.7 17.4313 7.1125 16.2938 5.7375C15.1563 4.3625 13.725 3.5 12 3.15V10.5V10.5M3 10.5H9V3.15C7.275 3.5 5.84375 4.3625 4.70625 5.7375C3.56875 7.1125 3 8.7 3 10.5V10.5M10.5 27C12.575 27 14.3437 26.2687 15.8062 24.8062C17.2687 23.3437 18 21.575 18 19.5V13.5H3V19.5C3 21.575 3.73125 23.3437 5.19375 24.8062C6.65625 26.2687 8.425 27 10.5 27V27M10.5 13.5V13.5V13.5V13.5V13.5V13.5V13.5V13.5V13.5V13.5V13.5M12 10.5V10.5V10.5V10.5V10.5V10.5M9 10.5V10.5V10.5V10.5V10.5V10.5M10.5 13.5V13.5V13.5V13.5V13.5V13.5V13.5V13.5V13.5" fill="#94A3B8"/>
</svg>
