<svg width="30" height="30" viewBox="0 0 30 30" fill="none" xmlns="http://www.w3.org/2000/svg">
<path d="M25.5 28.5L15 18L11.475 21.525C11.675 21.9 11.8125 22.3 11.8875 22.725C11.9625 23.15 12 23.575 12 24C12 25.65 11.4125 27.0625 10.2375 28.2375C9.0625 29.4125 7.65 30 6 30C4.35 30 2.9375 29.4125 1.7625 28.2375C0.5875 27.0625 0 25.65 0 24C0 22.35 0.5875 20.9375 1.7625 19.7625C2.9375 18.5875 4.35 18 6 18C6.425 18 6.85 18.0375 7.275 18.1125C7.7 18.1875 8.1 18.325 8.475 18.525L12 15L8.475 11.475C8.1 11.675 7.7 11.8125 7.275 11.8875C6.85 11.9625 6.425 12 6 12C4.35 12 2.9375 11.4125 1.7625 10.2375C0.5875 9.0625 0 7.65 0 6C0 4.35 0.5875 2.9375 1.7625 1.7625C2.9375 0.5875 4.35 0 6 0C7.65 0 9.0625 0.5875 10.2375 1.7625C11.4125 2.9375 12 4.35 12 6C12 6.425 11.9625 6.85 11.8875 7.275C11.8125 7.7 11.675 8.1 11.475 8.475L30 27V28.5H25.5V28.5M19.5 13.5L16.5 10.5L25.5 1.5H30V3L19.5 13.5V13.5M6 9C6.825 9 7.53125 8.70625 8.11875 8.11875C8.70625 7.53125 9 6.825 9 6C9 5.175 8.70625 4.46875 8.11875 3.88125C7.53125 3.29375 6.825 3 6 3C5.175 3 4.46875 3.29375 3.88125 3.88125C3.29375 4.46875 3 5.175 3 6C3 6.825 3.29375 7.53125 3.88125 8.11875C4.46875 8.70625 5.175 9 6 9V9M15 15.75C15.2 15.75 15.375 15.675 15.525 15.525C15.675 15.375 15.75 15.2 15.75 15C15.75 14.8 15.675 14.625 15.525 14.475C15.375 14.325 15.2 14.25 15 14.25C14.8 14.25 14.625 14.325 14.475 14.475C14.325 14.625 14.25 14.8 14.25 15C14.25 15.2 14.325 15.375 14.475 15.525C14.625 15.675 14.8 15.75 15 15.75V15.75M6 27C6.825 27 7.53125 26.7062 8.11875 26.1187C8.70625 25.5312 9 24.825 9 24C9 23.175 8.70625 22.4688 8.11875 21.8813C7.53125 21.2938 6.825 21 6 21C5.175 21 4.46875 21.2938 3.88125 21.8813C3.29375 22.4688 3 23.175 3 24C3 24.825 3.29375 25.5312 3.88125 26.1187C4.46875 26.7062 5.175 27 6 27V27" fill="#94A3B8"/>
</svg>
