<svg width="29" height="34" viewBox="0 0 29 34" fill="none" xmlns="http://www.w3.org/2000/svg">
<path d="M11.675 17.0001C10.3907 17.0001 9.29132 16.5428 8.37677 15.6283C7.46223 14.7137 7.00496 13.6143 7.00496 12.3301C7.00496 11.0458 7.46223 9.94642 8.37677 9.03188C9.29132 8.11734 10.3907 7.66007 11.675 7.66007C12.9592 7.66007 14.0586 8.11734 14.9731 9.03188C15.8877 9.94642 16.345 11.0458 16.345 12.3301C16.345 13.6143 15.8877 14.7137 14.9731 15.6283C14.0586 16.5428 12.9592 17.0001 11.675 17.0001ZM2.33496 26.3401V23.0711C2.33496 22.4289 2.50036 21.8257 2.83115 21.2614C3.16194 20.6972 3.61921 20.2691 4.20296 19.9772C5.19534 19.4713 6.31419 19.0432 7.55952 18.6929C8.80486 18.3427 10.1767 18.1676 11.675 18.1676C11.8306 18.1676 11.9668 18.1676 12.0836 18.1676C12.2003 18.1676 12.3171 18.187 12.4338 18.2259C12.2782 18.5762 12.1468 18.941 12.0398 19.3205C11.9328 19.6999 11.8501 20.0939 11.7917 20.5026H11.675C10.2934 20.5026 9.05295 20.6777 7.95355 21.0279C6.85416 21.3782 5.95421 21.7284 5.25371 22.0787C5.07859 22.176 4.93751 22.3122 4.83049 22.4873C4.72347 22.6624 4.66996 22.857 4.66996 23.0711V24.0051H12.0252C12.142 24.4137 12.2976 24.8175 12.4922 25.2163C12.6868 25.6152 12.9008 25.9898 13.1343 26.3401H2.33496ZM18.68 27.5076L18.3297 25.7563C18.0962 25.659 17.8773 25.5569 17.673 25.4498C17.4687 25.3428 17.2595 25.2115 17.0455 25.0558L15.3526 25.5812L14.1851 23.5964L15.5277 22.4289C15.4888 22.1565 15.4693 21.9036 15.4693 21.6701C15.4693 21.4366 15.4888 21.1836 15.5277 20.9112L14.1851 19.7437L15.3526 17.7589L17.0455 18.2843C17.2595 18.1287 17.4687 17.9973 17.673 17.8903C17.8773 17.7833 18.0962 17.6811 18.3297 17.5838L18.68 15.8326H21.015L21.3652 17.5838C21.5987 17.6811 21.8176 17.7881 22.0219 17.9049C22.2262 18.0216 22.4354 18.1676 22.6495 18.3427L24.3423 17.7589L25.5098 19.8021L24.1672 20.9696C24.2061 21.2031 24.2256 21.4463 24.2256 21.6993C24.2256 21.9522 24.2061 22.1954 24.1672 22.4289L25.5098 23.5964L24.3423 25.5812L22.6495 25.0558C22.4354 25.2115 22.2262 25.3428 22.0219 25.4498C21.8176 25.5569 21.5987 25.659 21.3652 25.7563L21.015 27.5076H18.68ZM19.8475 24.0051C20.4896 24.0051 21.0393 23.7764 21.4966 23.3192C21.9538 22.8619 22.1825 22.3122 22.1825 21.6701C22.1825 21.0279 21.9538 20.4782 21.4966 20.021C21.0393 19.5637 20.4896 19.3351 19.8475 19.3351C19.2053 19.3351 18.6556 19.5637 18.1984 20.021C17.7411 20.4782 17.5125 21.0279 17.5125 21.6701C17.5125 22.3122 17.7411 22.8619 18.1984 23.3192C18.6556 23.7764 19.2053 24.0051 19.8475 24.0051ZM11.675 14.6651C12.3171 14.6651 12.8668 14.4364 13.3241 13.9792C13.7813 13.5219 14.01 12.9722 14.01 12.3301C14.01 11.6879 13.7813 11.1382 13.3241 10.681C12.8668 10.2237 12.3171 9.99507 11.675 9.99507C11.0328 9.99507 10.4831 10.2237 10.0259 10.681C9.5686 11.1382 9.33996 11.6879 9.33996 12.3301C9.33996 12.9722 9.5686 13.5219 10.0259 13.9792C10.4831 14.4364 11.0328 14.6651 11.675 14.6651Z" fill="#D1D5DB"/>
</svg>
