<svg width="15" height="16" viewBox="0 0 15 16" fill="none" xmlns="http://www.w3.org/2000/svg">
<path d="M7.00987 7.99989C6.39876 7.99989 5.87562 7.7823 5.44043 7.34711C5.00524 6.91193 4.78765 6.38878 4.78765 5.77767C4.78765 5.16656 5.00524 4.64341 5.44043 4.20822C5.87562 3.77304 6.39876 3.55545 7.00987 3.55545C7.62099 3.55545 8.14413 3.77304 8.57932 4.20822C9.0145 4.64341 9.2321 5.16656 9.2321 5.77767C9.2321 6.38878 9.0145 6.91193 8.57932 7.34711C8.14413 7.7823 7.62099 7.99989 7.00987 7.99989ZM2.56543 12.4443V10.8888C2.56543 10.574 2.64645 10.2846 2.80849 10.0207C2.97052 9.75684 3.1858 9.55545 3.45432 9.41656C4.02839 9.12952 4.61173 8.91424 5.20432 8.77072C5.79691 8.62721 6.39876 8.55545 7.00987 8.55545C7.62099 8.55545 8.22284 8.62721 8.81543 8.77072C9.40802 8.91424 9.99136 9.12952 10.5654 9.41656C10.8339 9.55545 11.0492 9.75684 11.2113 10.0207C11.3733 10.2846 11.4543 10.574 11.4543 10.8888V12.4443H2.56543ZM3.67654 11.3332H10.3432V10.8888C10.3432 10.7869 10.3177 10.6943 10.2668 10.611C10.2159 10.5277 10.1488 10.4629 10.0654 10.4166C9.56543 10.1666 9.0608 9.97906 8.55154 9.85406C8.04228 9.72906 7.52839 9.66656 7.00987 9.66656C6.49136 9.66656 5.97747 9.72906 5.46821 9.85406C4.95895 9.97906 4.45432 10.1666 3.95432 10.4166C3.87099 10.4629 3.80386 10.5277 3.75293 10.611C3.702 10.6943 3.67654 10.7869 3.67654 10.8888V11.3332ZM7.00987 6.88878C7.31543 6.88878 7.577 6.77998 7.7946 6.56239C8.01219 6.3448 8.12099 6.08322 8.12099 5.77767C8.12099 5.47211 8.01219 5.21054 7.7946 4.99295C7.577 4.77535 7.31543 4.66656 7.00987 4.66656C6.70432 4.66656 6.44274 4.77535 6.22515 4.99295C6.00756 5.21054 5.89876 5.47211 5.89876 5.77767C5.89876 6.08322 6.00756 6.3448 6.22515 6.56239C6.44274 6.77998 6.70432 6.88878 7.00987 6.88878Z" fill="#C99BFF"/>
</svg>
