<svg width="25" height="28" viewBox="0 0 25 28" fill="none" xmlns="http://www.w3.org/2000/svg">
<path d="M11.0332 18.8534H12.9769V13.0225H11.0332V18.8534ZM12.005 11.0788C12.2804 11.0788 12.5112 10.9857 12.6975 10.7994C12.8837 10.6132 12.9769 10.3824 12.9769 10.107C12.9769 9.83167 12.8837 9.60086 12.6975 9.4146C12.5112 9.22833 12.2804 9.1352 12.005 9.1352C11.7297 9.1352 11.4989 9.22833 11.3126 9.4146C11.1264 9.60086 11.0332 9.83167 11.0332 10.107C11.0332 10.3824 11.1264 10.6132 11.3126 10.7994C11.4989 10.9857 11.7297 11.0788 12.005 11.0788ZM12.005 23.7125C10.6607 23.7125 9.39733 23.4574 8.21495 22.9472C7.03257 22.437 6.00407 21.7445 5.12943 20.8699C4.2548 19.9953 3.56238 18.9668 3.05217 17.7844C2.54197 16.602 2.28687 15.3386 2.28687 13.9943C2.28687 12.6499 2.54197 11.3866 3.05217 10.2042C3.56238 9.02182 4.2548 7.99331 5.12943 7.11868C6.00407 6.24404 7.03257 5.55162 8.21495 5.04142C9.39733 4.53122 10.6607 4.27611 12.005 4.27611C13.3494 4.27611 14.6128 4.53122 15.7951 5.04142C16.9775 5.55162 18.006 6.24404 18.8806 7.11868C19.7553 7.99331 20.4477 9.02182 20.9579 10.2042C21.4681 11.3866 21.7232 12.6499 21.7232 13.9943C21.7232 15.3386 21.4681 16.602 20.9579 17.7844C20.4477 18.9668 19.7553 19.9953 18.8806 20.8699C18.006 21.7445 16.9775 22.437 15.7951 22.9472C14.6128 23.4574 13.3494 23.7125 12.005 23.7125ZM12.005 21.7688C14.1754 21.7688 16.0138 21.0157 17.5201 19.5094C19.0264 18.003 19.7796 16.1647 19.7796 13.9943C19.7796 11.8239 19.0264 9.98554 17.5201 8.47922C16.0138 6.97291 14.1754 6.21975 12.005 6.21975C9.83465 6.21975 7.99629 6.97291 6.48998 8.47922C4.98366 9.98554 4.2305 11.8239 4.2305 13.9943C4.2305 16.1647 4.98366 18.003 6.48998 19.5094C7.99629 21.0157 9.83465 21.7688 12.005 21.7688Z" fill="#C99BFF"/>
</svg>
