<svg width="25" height="28" viewBox="0 0 25 28" fill="none" xmlns="http://www.w3.org/2000/svg">
<path d="M8.11774 21.7688H15.8923V18.8534C15.8923 17.7844 15.5117 16.8692 14.7504 16.108C13.9891 15.3467 13.074 14.9661 12.005 14.9661C10.936 14.9661 10.0209 15.3467 9.25962 16.108C8.49837 16.8692 8.11774 17.7844 8.11774 18.8534V21.7688ZM4.23047 23.7125V21.7688H6.1741V18.8534C6.1741 17.8654 6.40491 16.9381 6.86652 16.0715C7.32814 15.205 7.97197 14.5126 8.79801 13.9943C7.97197 13.476 7.32814 12.7836 6.86652 11.917C6.40491 11.0505 6.1741 10.1232 6.1741 9.1352V6.21975H4.23047V4.27611H19.7795V6.21975H17.8359V9.1352C17.8359 10.1232 17.6051 11.0505 17.1435 11.917C16.6819 12.7836 16.0381 13.476 15.212 13.9943C16.0381 14.5126 16.6819 15.205 17.1435 16.0715C17.6051 16.9381 17.8359 17.8654 17.8359 18.8534V21.7688H19.7795V23.7125H4.23047Z" fill="#C084FC"/>
</svg>
