<svg width="25" height="28" viewBox="0 0 25 28" fill="none" xmlns="http://www.w3.org/2000/svg">
<path d="M6.66254 13.0277L12.0098 4.27772L17.357 13.0277H6.66254ZM17.357 23.7222C16.1417 23.7222 15.1087 23.2968 14.258 22.4461C13.4073 21.5954 12.982 20.5624 12.982 19.3472C12.982 18.1319 13.4073 17.0989 14.258 16.2482C15.1087 15.3975 16.1417 14.9722 17.357 14.9722C18.5723 14.9722 19.6053 15.3975 20.4559 16.2482C21.3066 17.0989 21.732 18.1319 21.732 19.3472C21.732 20.5624 21.3066 21.5954 20.4559 22.4461C19.6053 23.2968 18.5723 23.7222 17.357 23.7222ZM3.25977 23.2361V15.4583H11.0375V23.2361H3.25977ZM17.357 21.7777C18.0375 21.7777 18.6128 21.5428 19.0827 21.0729C19.5526 20.603 19.7875 20.0277 19.7875 19.3472C19.7875 18.6666 19.5526 18.0914 19.0827 17.6215C18.6128 17.1516 18.0375 16.9166 17.357 16.9166C16.6764 16.9166 16.1012 17.1516 15.6313 17.6215C15.1614 18.0914 14.9264 18.6666 14.9264 19.3472C14.9264 20.0277 15.1614 20.603 15.6313 21.0729C16.1012 21.5428 16.6764 21.7777 17.357 21.7777ZM5.20421 21.2916H9.0931V17.4027H5.20421V21.2916ZM10.1139 11.0833H13.9056L12.0098 8.02078L10.1139 11.0833Z" fill="#C99BFF"/>
</svg>
