<svg width="25" height="28" viewBox="0 0 25 28" fill="none" xmlns="http://www.w3.org/2000/svg">
<path d="M8.12093 22.75V20.8056H4.23204C3.69732 20.8056 3.23957 20.6152 2.85878 20.2344C2.47799 19.8536 2.2876 19.3958 2.2876 18.8611V7.19444C2.2876 6.65972 2.47799 6.20197 2.85878 5.82118C3.23957 5.44039 3.69732 5.25 4.23204 5.25H12.0098V7.19444H4.23204V18.8611H19.7876V15.9444H21.732V18.8611C21.732 19.3958 21.5416 19.8536 21.1609 20.2344C20.7801 20.6152 20.3223 20.8056 19.7876 20.8056H15.8987V22.75H8.12093ZM16.8709 15.9444L12.0098 11.0833L13.3709 9.72222L15.8987 12.2257V5.25H17.8432V12.2257L20.3709 9.72222L21.732 11.0833L16.8709 15.9444Z" fill="#C99BFF"/>
</svg>
