<svg width="15" height="16" viewBox="0 0 15 16" fill="none" xmlns="http://www.w3.org/2000/svg">
<path d="M3.67632 10.2221H8.12077V9.111H3.67632V10.2221ZM3.67632 7.99989H10.343V6.88878H3.67632V7.99989ZM2.56521 12.4443C2.25966 12.4443 1.99808 12.3355 1.78049 12.1179C1.5629 11.9004 1.4541 11.6388 1.4541 11.3332V4.66656C1.4541 4.361 1.5629 4.09943 1.78049 3.88183C1.99808 3.66424 2.25966 3.55545 2.56521 3.55545H5.89855L7.00966 4.66656H11.4541C11.7597 4.66656 12.0212 4.77535 12.2388 4.99295C12.4564 5.21054 12.5652 5.47211 12.5652 5.77767V11.3332C12.5652 11.6388 12.4564 11.9004 12.2388 12.1179C12.0212 12.3355 11.7597 12.4443 11.4541 12.4443H2.56521ZM2.56521 11.3332H11.4541V5.77767H6.55132L5.44021 4.66656H2.56521V11.3332ZM2.56521 11.3332V4.66656V5.77767V11.3332Z" fill="#C99BFF"/>
</svg>
