<svg width="20" height="24" viewBox="0 0 20 24" fill="none" xmlns="http://www.w3.org/2000/svg">
<path d="M5.00002 20.3333V16.7916C4.45835 16.5555 3.98266 16.2395 3.57294 15.8437C3.16321 15.4478 2.81599 14.9999 2.53127 14.4999C2.24655 13.9999 2.03127 13.4652 1.88544 12.8958C1.7396 12.3263 1.66669 11.7499 1.66669 11.1666C1.66669 8.97214 2.44446 7.17353 4.00002 5.77075C5.55558 4.36797 7.55558 3.66658 10 3.66658C12.4445 3.66658 14.4445 4.36797 16 5.77075C17.5556 7.17353 18.3334 8.97214 18.3334 11.1666C18.3334 11.7499 18.2604 12.3263 18.1146 12.8958C17.9688 13.4652 17.7535 13.9999 17.4688 14.4999C17.184 14.9999 16.8368 15.4478 16.4271 15.8437C16.0174 16.2395 15.5417 16.5555 15 16.7916V20.3333H5.00002ZM6.66669 18.6666H7.50002V16.9999H9.16669V18.6666H10.8334V16.9999H12.5V18.6666H13.3334V15.7083C13.8611 15.5833 14.3299 15.3749 14.7396 15.0833C15.1493 14.7916 15.4965 14.4444 15.7813 14.0416C16.066 13.6388 16.2847 13.1944 16.4375 12.7083C16.5903 12.2221 16.6667 11.7083 16.6667 11.1666C16.6667 9.43047 16.0521 8.02422 14.8229 6.94783C13.5938 5.87144 11.9861 5.33325 10 5.33325C8.01391 5.33325 6.40627 5.87144 5.1771 6.94783C3.94794 8.02422 3.33335 9.43047 3.33335 11.1666C3.33335 11.7083 3.40974 12.2221 3.56252 12.7083C3.7153 13.1944 3.93405 13.6388 4.21877 14.0416C4.50349 14.4444 4.85419 14.7916 5.27085 15.0833C5.68752 15.3749 6.1528 15.5833 6.66669 15.7083V18.6666ZM8.75002 14.4999H11.25L10 11.9999L8.75002 14.4999ZM7.08335 12.8333C7.54169 12.8333 7.93405 12.6701 8.26044 12.3437C8.58683 12.0173 8.75002 11.6249 8.75002 11.1666C8.75002 10.7083 8.58683 10.3159 8.26044 9.9895C7.93405 9.66311 7.54169 9.49992 7.08335 9.49992C6.62502 9.49992 6.23266 9.66311 5.90627 9.9895C5.57988 10.3159 5.41669 10.7083 5.41669 11.1666C5.41669 11.6249 5.57988 12.0173 5.90627 12.3437C6.23266 12.6701 6.62502 12.8333 7.08335 12.8333ZM12.9167 12.8333C13.375 12.8333 13.7674 12.6701 14.0938 12.3437C14.4202 12.0173 14.5834 11.6249 14.5834 11.1666C14.5834 10.7083 14.4202 10.3159 14.0938 9.9895C13.7674 9.66311 13.375 9.49992 12.9167 9.49992C12.4584 9.49992 12.066 9.66311 11.7396 9.9895C11.4132 10.3159 11.25 10.7083 11.25 11.1666C11.25 11.6249 11.4132 12.0173 11.7396 12.3437C12.066 12.6701 12.4584 12.8333 12.9167 12.8333Z" fill="#9CA3AF"/>
</svg>
