<svg width="20" height="24" viewBox="0 0 20 24" fill="none" xmlns="http://www.w3.org/2000/svg">
<path d="M6.25002 15.7499L12.0834 14.0833L13.75 8.24992L7.91669 9.91658L6.25002 15.7499ZM10 13.2499C9.6528 13.2499 9.35766 13.1284 9.1146 12.8853C8.87155 12.6423 8.75002 12.3471 8.75002 11.9999C8.75002 11.6527 8.87155 11.3576 9.1146 11.1145C9.35766 10.8714 9.6528 10.7499 10 10.7499C10.3472 10.7499 10.6424 10.8714 10.8854 11.1145C11.1285 11.3576 11.25 11.6527 11.25 11.9999C11.25 12.3471 11.1285 12.6423 10.8854 12.8853C10.6424 13.1284 10.3472 13.2499 10 13.2499ZM10 20.3333C8.84724 20.3333 7.76391 20.1145 6.75002 19.677C5.73613 19.2395 4.85419 18.6458 4.10419 17.8958C3.35419 17.1458 2.76044 16.2638 2.32294 15.2499C1.88544 14.236 1.66669 13.1527 1.66669 11.9999C1.66669 10.8471 1.88544 9.76381 2.32294 8.74992C2.76044 7.73603 3.35419 6.85408 4.10419 6.10408C4.85419 5.35408 5.73613 4.76033 6.75002 4.32283C7.76391 3.88533 8.84724 3.66658 10 3.66658C11.1528 3.66658 12.2361 3.88533 13.25 4.32283C14.2639 4.76033 15.1459 5.35408 15.8959 6.10408C16.6459 6.85408 17.2396 7.73603 17.6771 8.74992C18.1146 9.76381 18.3334 10.8471 18.3334 11.9999C18.3334 13.1527 18.1146 14.236 17.6771 15.2499C17.2396 16.2638 16.6459 17.1458 15.8959 17.8958C15.1459 18.6458 14.2639 19.2395 13.25 19.677C12.2361 20.1145 11.1528 20.3333 10 20.3333ZM10 18.6666C11.8472 18.6666 13.4202 18.0173 14.7188 16.7187C16.0174 15.4201 16.6667 13.8471 16.6667 11.9999C16.6667 10.1527 16.0174 8.57978 14.7188 7.28117C13.4202 5.98256 11.8472 5.33325 10 5.33325C8.1528 5.33325 6.57988 5.98256 5.28127 7.28117C3.98266 8.57978 3.33335 10.1527 3.33335 11.9999C3.33335 13.8471 3.98266 15.4201 5.28127 16.7187C6.57988 18.0173 8.1528 18.6666 10 18.6666Z" fill="#9CA3AF"/>
</svg>
