<svg width="25" height="28" viewBox="0 0 25 28" fill="none" xmlns="http://www.w3.org/2000/svg">
<path d="M7.14865 18.8611H13.9542V16.9167H7.14865V18.8611ZM7.14865 14.9722H16.8709V13.0278H7.14865V14.9722ZM7.14865 11.0833H16.8709V9.13889H7.14865V11.0833ZM5.20421 22.75C4.66949 22.75 4.21173 22.5596 3.83095 22.1788C3.45016 21.798 3.25977 21.3403 3.25977 20.8056V7.19444C3.25977 6.65972 3.45016 6.20197 3.83095 5.82118C4.21173 5.44039 4.66949 5.25 5.20421 5.25H18.8153C19.35 5.25 19.8078 5.44039 20.1886 5.82118C20.5694 6.20197 20.7598 6.65972 20.7598 7.19444V20.8056C20.7598 21.3403 20.5694 21.798 20.1886 22.1788C19.8078 22.5596 19.35 22.75 18.8153 22.75H5.20421ZM5.20421 20.8056H18.8153V7.19444H5.20421V20.8056Z" fill="#FAF8FF" fill-opacity="0.49"/>
</svg>
