<svg width="15" height="16" viewBox="0 0 15 16" fill="none" xmlns="http://www.w3.org/2000/svg">
<path d="M3.67632 9.11122H8.12077V8.00011H3.67632V9.11122ZM3.67632 7.44455H10.343V6.33344H3.67632V7.44455ZM3.67632 5.77789H10.343V4.66677H3.67632V5.77789ZM1.4541 13.5557V3.55566C1.4541 3.25011 1.5629 2.98853 1.78049 2.77094C1.99808 2.55335 2.25966 2.44455 2.56521 2.44455H11.4541C11.7597 2.44455 12.0212 2.55335 12.2388 2.77094C12.4564 2.98853 12.5652 3.25011 12.5652 3.55566V10.2223C12.5652 10.5279 12.4564 10.7895 12.2388 11.0071C12.0212 11.2246 11.7597 11.3334 11.4541 11.3334H3.67632L1.4541 13.5557ZM3.2041 10.2223H11.4541V3.55566H2.56521V10.8473L3.2041 10.2223Z" fill="#C99BFF"/>
</svg>
