<svg width="25" height="28" viewBox="0 0 25 28" fill="none" xmlns="http://www.w3.org/2000/svg">
<path d="M10.9894 17.4513L16.4824 11.9583L15.097 10.5729L10.9894 14.6805L8.9477 12.6388L7.56228 14.0243L10.9894 17.4513ZM12.0102 23.7222C9.75788 23.155 7.89851 21.8628 6.43207 19.8454C4.96564 17.8281 4.23242 15.5879 4.23242 13.1249V7.19439L12.0102 4.27772L19.788 7.19439V13.1249C19.788 15.5879 19.0548 17.8281 17.5883 19.8454C16.1219 21.8628 14.2625 23.155 12.0102 23.7222ZM12.0102 21.6805C13.6954 21.1458 15.0889 20.0763 16.1908 18.4722C17.2926 16.868 17.8435 15.0856 17.8435 13.1249V8.5312L12.0102 6.34369L6.17687 8.5312V13.1249C6.17687 15.0856 6.72779 16.868 7.82964 18.4722C8.9315 20.0763 10.325 21.1458 12.0102 21.6805Z" fill="#C99BFF"/>
</svg>
