<svg width="29" height="34" viewBox="0 0 29 34" fill="none" xmlns="http://www.w3.org/2000/svg">
<path d="M25.685 9.99509V24.0051C25.685 24.6472 25.4563 25.1969 24.9991 25.6542C24.5418 26.1115 23.9921 26.3401 23.35 26.3401H4.66996C4.02784 26.3401 3.47814 26.1115 3.02087 25.6542C2.5636 25.1969 2.33496 24.6472 2.33496 24.0051V9.99509C2.33496 9.35296 2.5636 8.80326 3.02087 8.34599C3.47814 7.88872 4.02784 7.66009 4.66996 7.66009H23.35C23.9921 7.66009 24.5418 7.88872 24.9991 8.34599C25.4563 8.80326 25.685 9.35296 25.685 9.99509ZM4.66996 12.3301H23.35V9.99509H4.66996V12.3301ZM4.66996 17.0001V24.0051H23.35V17.0001H4.66996Z" fill="#D1D5DB"/>
</svg>
