<svg width="25" height="28" viewBox="0 0 25 28" fill="none" xmlns="http://www.w3.org/2000/svg">
<path d="M13.9543 14.9723C13.1441 14.9723 12.4555 14.6887 11.8883 14.1216C11.3212 13.5545 11.0377 12.8658 11.0377 12.0556C11.0377 11.2454 11.3212 10.5568 11.8883 9.98964C12.4555 9.42251 13.1441 9.13894 13.9543 9.13894C14.7645 9.13894 15.4532 9.42251 16.0203 9.98964C16.5874 10.5568 16.871 11.2454 16.871 12.0556C16.871 12.8658 16.5874 13.5545 16.0203 14.1216C15.4532 14.6887 14.7645 14.9723 13.9543 14.9723ZM7.14876 17.8889C6.61404 17.8889 6.15629 17.6985 5.7755 17.3178C5.39471 16.937 5.20432 16.4792 5.20432 15.9445V8.16672C5.20432 7.632 5.39471 7.17424 5.7755 6.79346C6.15629 6.41267 6.61404 6.22228 7.14876 6.22228H20.7599C21.2946 6.22228 21.7524 6.41267 22.1331 6.79346C22.5139 7.17424 22.7043 7.632 22.7043 8.16672V15.9445C22.7043 16.4792 22.5139 16.937 22.1331 17.3178C21.7524 17.6985 21.2946 17.8889 20.7599 17.8889H7.14876ZM9.09321 15.9445H18.8154C18.8154 15.4098 19.0058 14.952 19.3866 14.5712C19.7674 14.1904 20.2252 14.0001 20.7599 14.0001V10.1112C20.2252 10.1112 19.7674 9.92077 19.3866 9.53998C19.0058 9.1592 18.8154 8.70144 18.8154 8.16672H9.09321C9.09321 8.70144 8.90281 9.1592 8.52203 9.53998C8.14124 9.92077 7.68349 10.1112 7.14876 10.1112V14.0001C7.68349 14.0001 8.14124 14.1904 8.52203 14.5712C8.90281 14.952 9.09321 15.4098 9.09321 15.9445ZM19.7877 21.7778H3.25987C2.72515 21.7778 2.2674 21.5874 1.88661 21.2067C1.50582 20.8259 1.31543 20.3681 1.31543 19.8334V9.13894H3.25987V19.8334H19.7877V21.7778Z" fill="#6B7280"/>
</svg>
