<svg width="25" height="28" viewBox="0 0 25 28" fill="none" xmlns="http://www.w3.org/2000/svg">
<path d="M1.31543 22.75L12.0099 4.27778L22.7043 22.75H1.31543ZM4.6696 20.8056H19.3502L12.0099 8.16667L4.6696 20.8056ZM12.0099 19.8333C12.2853 19.8333 12.5162 19.7402 12.7026 19.5538C12.8889 19.3675 12.9821 19.1366 12.9821 18.8611C12.9821 18.5856 12.8889 18.3547 12.7026 18.1684C12.5162 17.9821 12.2853 17.8889 12.0099 17.8889C11.7344 17.8889 11.5035 17.9821 11.3172 18.1684C11.1308 18.3547 11.0377 18.5856 11.0377 18.8611C11.0377 19.1366 11.1308 19.3675 11.3172 19.5538C11.5035 19.7402 11.7344 19.8333 12.0099 19.8333ZM11.0377 16.9167H12.9821V12.0556H11.0377V16.9167Z" fill="#C99BFF"/>
</svg>
