<svg width="48" height="58" viewBox="0 0 48 58" fill="none" xmlns="http://www.w3.org/2000/svg">
<path d="M8 45C6.9 45 5.95833 44.6083 5.175 43.825C4.39167 43.0417 4 42.1 4 41V17C4 15.9 4.39167 14.9583 5.175 14.175C5.95833 13.3917 6.9 13 8 13H20L24 17H40C41.1 17 42.0417 17.3917 42.825 18.175C43.6083 18.9583 44 19.9 44 21H22.35L18.35 17H8V41L12.8 25H47L41.85 42.15C41.5833 43.0167 41.0917 43.7083 40.375 44.225C39.6583 44.7417 38.8667 45 38 45H8ZM12.2 41H38L41.6 29H15.8L12.2 41Z" fill="#C99BFF"/>
</svg>
