<svg width="18" height="22" viewBox="0 0 18 22" fill="none" xmlns="http://www.w3.org/2000/svg">
<path d="M3.54336 17C2.79336 17 2.15273 16.7312 1.62148 16.1937C1.09023 15.6562 0.812109 15.0062 0.787109 14.2437C0.787109 14.1312 0.793359 14.0187 0.805859 13.9062C0.818359 13.7937 0.837109 13.6812 0.862109 13.5687L2.43711 7.26875C2.61211 6.59375 2.96836 6.04688 3.50586 5.62812C4.04336 5.20937 4.65586 5 5.34336 5H12.6559C13.3434 5 13.9559 5.20937 14.4934 5.62812C15.0309 6.04688 15.3871 6.59375 15.5621 7.26875L17.1371 13.5687C17.1621 13.6812 17.184 13.7969 17.2027 13.9156C17.2215 14.0344 17.2309 14.15 17.2309 14.2625C17.2309 15.025 16.959 15.6719 16.4152 16.2031C15.8715 16.7344 15.2184 17 14.4559 17C13.9309 17 13.4434 16.8625 12.9934 16.5875C12.5434 16.3125 12.2059 15.9375 11.9809 15.4625L11.4559 14.375C11.3934 14.25 11.2996 14.1562 11.1746 14.0938C11.0496 14.0312 10.9184 14 10.7809 14H7.21836C7.08086 14 6.94961 14.0312 6.82461 14.0938C6.69961 14.1562 6.60586 14.25 6.54336 14.375L6.01836 15.4625C5.79336 15.9375 5.45586 16.3125 5.00586 16.5875C4.55586 16.8625 4.06836 17 3.54336 17ZM3.59961 15.5C3.83711 15.5 4.05273 15.4375 4.24648 15.3125C4.44023 15.1875 4.58711 15.0187 4.68711 14.8062L5.21211 13.7375C5.39961 13.35 5.67461 13.0469 6.03711 12.8281C6.39961 12.6094 6.79336 12.5 7.21836 12.5H10.7809C11.2059 12.5 11.5996 12.6125 11.9621 12.8375C12.3246 13.0625 12.6059 13.3625 12.8059 13.7375L13.3309 14.8062C13.4309 15.0187 13.5777 15.1875 13.7715 15.3125C13.9652 15.4375 14.1809 15.5 14.4184 15.5C14.7684 15.5 15.0684 15.3844 15.3184 15.1531C15.5684 14.9219 15.6996 14.6312 15.7121 14.2812C15.7121 14.2937 15.6996 14.175 15.6746 13.925L14.0996 7.64375C14.0121 7.30625 13.8371 7.03125 13.5746 6.81875C13.3121 6.60625 13.0059 6.5 12.6559 6.5H5.34336C4.99336 6.5 4.68398 6.60625 4.41523 6.81875C4.14648 7.03125 3.97461 7.30625 3.89961 7.64375L2.32461 13.925C2.29961 14 2.28711 14.1125 2.28711 14.2625C2.28711 14.6125 2.41523 14.9062 2.67148 15.1437C2.92773 15.3812 3.23711 15.5 3.59961 15.5ZM10.1246 10.25C10.3371 10.25 10.5152 10.1781 10.659 10.0344C10.8027 9.89062 10.8746 9.7125 10.8746 9.5C10.8746 9.2875 10.8027 9.10937 10.659 8.96562C10.5152 8.82187 10.3371 8.75 10.1246 8.75C9.91211 8.75 9.73398 8.82187 9.59023 8.96562C9.44648 9.10937 9.37461 9.2875 9.37461 9.5C9.37461 9.7125 9.44648 9.89062 9.59023 10.0344C9.73398 10.1781 9.91211 10.25 10.1246 10.25ZM11.6246 8.75C11.8371 8.75 12.0152 8.67812 12.159 8.53437C12.3027 8.39062 12.3746 8.2125 12.3746 8C12.3746 7.7875 12.3027 7.60938 12.159 7.46562C12.0152 7.32187 11.8371 7.25 11.6246 7.25C11.4121 7.25 11.234 7.32187 11.0902 7.46562C10.9465 7.60938 10.8746 7.7875 10.8746 8C10.8746 8.2125 10.9465 8.39062 11.0902 8.53437C11.234 8.67812 11.4121 8.75 11.6246 8.75ZM11.6246 11.75C11.8371 11.75 12.0152 11.6781 12.159 11.5344C12.3027 11.3906 12.3746 11.2125 12.3746 11C12.3746 10.7875 12.3027 10.6094 12.159 10.4656C12.0152 10.3219 11.8371 10.25 11.6246 10.25C11.4121 10.25 11.234 10.3219 11.0902 10.4656C10.9465 10.6094 10.8746 10.7875 10.8746 11C10.8746 11.2125 10.9465 11.3906 11.0902 11.5344C11.234 11.6781 11.4121 11.75 11.6246 11.75ZM13.1246 10.25C13.3371 10.25 13.5152 10.1781 13.659 10.0344C13.8027 9.89062 13.8746 9.7125 13.8746 9.5C13.8746 9.2875 13.8027 9.10937 13.659 8.96562C13.5152 8.82187 13.3371 8.75 13.1246 8.75C12.9121 8.75 12.734 8.82187 12.5902 8.96562C12.4465 9.10937 12.3746 9.2875 12.3746 9.5C12.3746 9.7125 12.4465 9.89062 12.5902 10.0344C12.734 10.1781 12.9121 10.25 13.1246 10.25ZM6.37461 11.375C6.53711 11.375 6.67148 11.3219 6.77773 11.2156C6.88398 11.1094 6.93711 10.975 6.93711 10.8125V10.0625H7.68711C7.84961 10.0625 7.98398 10.0094 8.09023 9.90312C8.19648 9.79687 8.24961 9.6625 8.24961 9.5C8.24961 9.3375 8.19648 9.20312 8.09023 9.09687C7.98398 8.99062 7.84961 8.9375 7.68711 8.9375H6.93711V8.1875C6.93711 8.025 6.88398 7.89062 6.77773 7.78437C6.67148 7.67812 6.53711 7.625 6.37461 7.625C6.21211 7.625 6.07773 7.67812 5.97148 7.78437C5.86523 7.89062 5.81211 8.025 5.81211 8.1875V8.9375H5.06211C4.89961 8.9375 4.76523 8.99062 4.65898 9.09687C4.55273 9.20312 4.49961 9.3375 4.49961 9.5C4.49961 9.6625 4.55273 9.79687 4.65898 9.90312C4.76523 10.0094 4.89961 10.0625 5.06211 10.0625H5.81211V10.8125C5.81211 10.975 5.86523 11.1094 5.97148 11.2156C6.07773 11.3219 6.21211 11.375 6.37461 11.375Z" fill="#9CA3AF"/>
</svg>
