<svg width="18" height="22" viewBox="0 0 18 22" fill="none" xmlns="http://www.w3.org/2000/svg">
<path d="M6 17.75V16.25H7.5V14.75H3C2.5875 14.75 2.23438 14.6031 1.94063 14.3094C1.64687 14.0156 1.5 13.6625 1.5 13.25V5.75C1.5 5.3375 1.64687 4.98437 1.94063 4.69062C2.23438 4.39687 2.5875 4.25 3 4.25H15C15.4125 4.25 15.7656 4.39687 16.0594 4.69062C16.3531 4.98437 16.5 5.3375 16.5 5.75V13.25C16.5 13.6625 16.3531 14.0156 16.0594 14.3094C15.7656 14.6031 15.4125 14.75 15 14.75H10.5V16.25H12V17.75H6ZM3 13.25H15V5.75H3V13.25Z" fill="#9CA3AF"/>
</svg>
