<svg width="30" height="29" viewBox="0 0 30 29" fill="none" xmlns="http://www.w3.org/2000/svg">
<path d="M13.2 28.5C12.525 28.5 11.8813 28.3563 11.2688 28.0688C10.6563 27.7813 10.1375 27.375 9.7125 26.85L0 14.8875L0.975 13.95C1.45 13.475 2.0125 13.2 2.6625 13.125C3.3125 13.05 3.9 13.2 4.425 13.575L8.775 16.6125V1.5C8.775 1.075 8.91875 0.71875 9.20625 0.43125C9.49375 0.14375 9.85 0 10.275 0C10.7 0 11.0563 0.14375 11.3438 0.43125C11.6312 0.71875 11.775 1.075 11.775 1.5V22.3875L7.6125 19.4625L12.0375 24.9375C12.1875 25.1125 12.3625 25.25 12.5625 25.35C12.7625 25.45 12.975 25.5 13.2 25.5H23.775C24.6 25.5 25.3062 25.2062 25.8937 24.6187C26.4812 24.0312 26.775 23.325 26.775 22.5V12C26.775 11.575 26.9187 11.2187 27.2062 10.9312C27.4937 10.6437 27.85 10.5 28.275 10.5C28.7 10.5 29.0563 10.6437 29.3438 10.9312C29.6312 11.2187 29.775 11.575 29.775 12V22.5C29.775 24.15 29.1875 25.5625 28.0125 26.7375C26.8375 27.9125 25.425 28.5 23.775 28.5H13.2V28.5M17.775 19.5V19.5V19.5V19.5V19.5V19.5V19.5V19.5V19.5V19.5V19.5V19.5M14.775 16.5V7.5C14.775 7.075 14.9188 6.71875 15.2063 6.43125C15.4938 6.14375 15.85 6 16.275 6C16.7 6 17.0563 6.14375 17.3438 6.43125C17.6312 6.71875 17.775 7.075 17.775 7.5V16.5H14.775V16.5M20.775 16.5V9C20.775 8.575 20.9187 8.21875 21.2062 7.93125C21.4937 7.64375 21.85 7.5 22.275 7.5C22.7 7.5 23.0563 7.64375 23.3438 7.93125C23.6312 8.21875 23.775 8.575 23.775 9V16.5H20.775V16.5" fill="#94A3B8"/>
</svg>
