<svg width="16" height="20" viewBox="0 0 16 20" fill="none" xmlns="http://www.w3.org/2000/svg">
<path d="M13.0667 16L8.86667 11.8C8.53333 12.0667 8.15 12.2778 7.71667 12.4333C7.28333 12.5889 6.82222 12.6667 6.33333 12.6667C5.12222 12.6667 4.09722 12.2472 3.25833 11.4083C2.41944 10.5694 2 9.54444 2 8.33333C2 7.12222 2.41944 6.09722 3.25833 5.25833C4.09722 4.41944 5.12222 4 6.33333 4C7.54444 4 8.56944 4.41944 9.40833 5.25833C10.2472 6.09722 10.6667 7.12222 10.6667 8.33333C10.6667 8.82222 10.5889 9.28333 10.4333 9.71667C10.2778 10.15 10.0667 10.5333 9.8 10.8667L14 15.0667L13.0667 16ZM6.33333 11.3333C7.16667 11.3333 7.875 11.0417 8.45833 10.4583C9.04167 9.875 9.33333 9.16667 9.33333 8.33333C9.33333 7.5 9.04167 6.79167 8.45833 6.20833C7.875 5.625 7.16667 5.33333 6.33333 5.33333C5.5 5.33333 4.79167 5.625 4.20833 6.20833C3.625 6.79167 3.33333 7.5 3.33333 8.33333C3.33333 9.16667 3.625 9.875 4.20833 10.4583C4.79167 11.0417 5.5 11.3333 6.33333 11.3333ZM5 10.3333L5.5 8.7L4.16667 7.63333H5.8L6.33333 6L6.86667 7.63333H8.5L7.16667 8.7L7.66667 10.3333L6.33333 9.3L5 10.3333Z" fill="#C99BFF"/>
</svg>
