<svg width="27" height="27" viewBox="0 0 27 27" fill="none" xmlns="http://www.w3.org/2000/svg">
<path d="M3 27C2.175 27 1.46875 26.7062 0.88125 26.1187C0.29375 25.5312 0 24.825 0 24V3C0 2.175 0.29375 1.46875 0.88125 0.88125C1.46875 0.29375 2.175 0 3 0H24C24.825 0 25.5312 0.29375 26.1187 0.88125C26.7062 1.46875 27 2.175 27 3V24C27 24.825 26.7062 25.5312 26.1187 26.1187C25.5312 26.7062 24.825 27 24 27H3V27M3 24H7.875V17.25H7.5C7.075 17.25 6.71875 17.1063 6.43125 16.8188C6.14375 16.5313 6 16.175 6 15.75V3H3V3V3V24V24V24V24M19.125 24H24V24V24V3V3V3H21V15.75C21 16.175 20.8563 16.5313 20.5688 16.8188C20.2813 17.1063 19.925 17.25 19.5 17.25H19.125V24V24M10.125 24H16.875V17.25H16.5C16.075 17.25 15.7187 17.1063 15.4312 16.8188C15.1437 16.5313 15 16.175 15 15.75V3H12V15.75C12 16.175 11.8563 16.5313 11.5688 16.8188C11.2813 17.1063 10.925 17.25 10.5 17.25H10.125V24V24" fill="#94A3B8"/>
</svg>
