<svg width="20" height="24" viewBox="0 0 20 24" fill="none" xmlns="http://www.w3.org/2000/svg">
<path d="M6.66667 18.6667C6.20833 18.6667 5.81597 18.5036 5.48958 18.1772C5.16319 17.8508 5 17.4584 5 17.0001V14.5001H7.5V12.6251C7.01389 12.5973 6.55208 12.4897 6.11458 12.3022C5.67708 12.1147 5.27778 11.8334 4.91667 11.4584V10.5417H3.95833L1.25 7.83341C1.75 7.19453 2.36806 6.74314 3.10417 6.47925C3.84028 6.21536 4.58333 6.08341 5.33333 6.08341C5.70833 6.08341 6.07292 6.11119 6.42708 6.16675C6.78125 6.2223 7.13889 6.32647 7.5 6.47925V5.33341H17.5V16.1667C17.5 16.8612 17.2569 17.4515 16.7708 17.9376C16.2847 18.4237 15.6944 18.6667 15 18.6667H6.66667ZM9.16667 14.5001H14.1667V16.1667C14.1667 16.4029 14.2465 16.6008 14.4062 16.7605C14.566 16.9202 14.7639 17.0001 15 17.0001C15.2361 17.0001 15.434 16.9202 15.5938 16.7605C15.7535 16.6008 15.8333 16.4029 15.8333 16.1667V7.00008H9.16667V7.50008L14.1667 12.5001V13.6667H13L10.625 11.2917L10.4583 11.4584C10.2639 11.6529 10.059 11.8265 9.84375 11.9792C9.62847 12.132 9.40278 12.2501 9.16667 12.3334V14.5001ZM4.66667 8.87508H6.58333V10.6667C6.75 10.7779 6.92361 10.8542 7.10417 10.8959C7.28472 10.9376 7.47222 10.9584 7.66667 10.9584C7.98611 10.9584 8.27431 10.9098 8.53125 10.8126C8.78819 10.7154 9.04167 10.5417 9.29167 10.2917L9.45833 10.1251L8.29167 8.95841C7.88889 8.55564 7.4375 8.25355 6.9375 8.05216C6.4375 7.85078 5.90278 7.75008 5.33333 7.75008C5.05556 7.75008 4.79167 7.77091 4.54167 7.81258C4.29167 7.85425 4.04167 7.91675 3.79167 8.00008L4.66667 8.87508ZM12.5 16.1667H6.66667V17.0001H12.625C12.5833 16.8751 12.5521 16.7431 12.5312 16.6042C12.5104 16.4654 12.5 16.3195 12.5 16.1667ZM6.66667 17.0001C6.66667 16.8751 6.66667 16.7431 6.66667 16.6042C6.66667 16.4654 6.66667 16.3195 6.66667 16.1667C6.66667 16.3056 6.66667 16.4445 6.66667 16.5834C6.66667 16.7223 6.66667 16.8612 6.66667 17.0001Z" fill="#9CA3AF"/>
</svg>
