<svg width="25" height="28" viewBox="0 0 25 28" fill="none" xmlns="http://www.w3.org/2000/svg">
<path d="M19.3908 22.7405L13.2684 16.6181C12.7825 17.0068 12.2237 17.3146 11.592 17.5413C10.9603 17.7681 10.2881 17.8815 9.57548 17.8815C7.81001 17.8815 6.31584 17.27 5.09297 16.0471C3.8701 14.8243 3.25867 13.3301 3.25867 11.5646C3.25867 9.79917 3.8701 8.305 5.09297 7.08213C6.31584 5.85926 7.81001 5.24783 9.57548 5.24783C11.3409 5.24783 12.8351 5.85926 14.058 7.08213C15.2809 8.305 15.8923 9.79917 15.8923 11.5646C15.8923 12.2773 15.7789 12.9495 15.5522 13.5812C15.3254 14.2128 15.0177 14.7716 14.6289 15.2575L20.7514 21.38L19.3908 22.7405ZM9.57548 15.9378C10.7903 15.9378 11.8228 15.5126 12.6731 14.6623C13.5235 13.812 13.9487 12.7794 13.9487 11.5646C13.9487 10.3499 13.5235 9.31731 12.6731 8.46697C11.8228 7.61663 10.7903 7.19146 9.57548 7.19146C8.36071 7.19146 7.32815 7.61663 6.47781 8.46697C5.62747 9.31731 5.2023 10.3499 5.2023 11.5646C5.2023 12.7794 5.62747 13.812 6.47781 14.6623C7.32815 15.5126 8.36071 15.9378 9.57548 15.9378Z" fill="#9CA3AF"/>
</svg>
