<svg width="25" height="28" viewBox="0 0 25 28" fill="none" xmlns="http://www.w3.org/2000/svg">
<path d="M16.8713 18.8611C17.2764 18.8611 17.6207 18.7193 17.9043 18.4357C18.1879 18.1521 18.3296 17.8078 18.3296 17.4027C18.3296 16.9976 18.1879 16.6533 17.9043 16.3697C17.6207 16.0862 17.2764 15.9444 16.8713 15.9444C16.4662 15.9444 16.1219 16.0862 15.8383 16.3697C15.5548 16.6533 15.413 16.9976 15.413 17.4027C15.413 17.8078 15.5548 18.1521 15.8383 18.4357C16.1219 18.7193 16.4662 18.8611 16.8713 18.8611ZM16.8713 21.7777C17.3736 21.7777 17.8354 21.6602 18.2567 21.4253C18.678 21.1903 19.0183 20.8784 19.2776 20.4895C18.9211 20.2789 18.5403 20.1168 18.1352 20.0034C17.7301 19.89 17.3088 19.8333 16.8713 19.8333C16.4338 19.8333 16.0125 19.89 15.6074 20.0034C15.2023 20.1168 14.8215 20.2789 14.4651 20.4895C14.7243 20.8784 15.0646 21.1903 15.4859 21.4253C15.9072 21.6602 16.369 21.7777 16.8713 21.7777ZM12.0102 23.7222C9.75788 23.155 7.89851 21.8628 6.43207 19.8454C4.96564 17.8281 4.23242 15.5879 4.23242 13.1249V7.19439L12.0102 4.27772L19.788 7.19439V12.7118C19.4801 12.5821 19.1641 12.4646 18.8401 12.3593C18.516 12.254 18.1838 12.177 17.8435 12.1284V8.5555L12.0102 6.368L6.17687 8.5555V13.1249C6.17687 13.8865 6.27814 14.6481 6.48069 15.4097C6.68323 16.1712 6.9668 16.8964 7.33138 17.585C7.69596 18.2737 8.13751 18.9097 8.65603 19.493C9.17455 20.0763 9.74978 20.5624 10.3817 20.9513C10.56 21.4699 10.7949 21.9641 11.0866 22.434C11.3783 22.9039 11.7104 23.3252 12.0831 23.6979C12.0669 23.6979 12.0548 23.7019 12.0467 23.71C12.0386 23.7181 12.0264 23.7222 12.0102 23.7222ZM16.8713 23.7222C15.5264 23.7222 14.38 23.2482 13.4321 22.3003C12.4842 21.3524 12.0102 20.206 12.0102 18.8611C12.0102 17.5161 12.4842 16.3697 13.4321 15.4218C14.38 14.4739 15.5264 13.9999 16.8713 13.9999C18.2162 13.9999 19.3626 14.4739 20.3105 15.4218C21.2585 16.3697 21.7324 17.5161 21.7324 18.8611C21.7324 20.206 21.2585 21.3524 20.3105 22.3003C19.3626 23.2482 18.2162 23.7222 16.8713 23.7222Z" fill="#C99BFF"/>
</svg>
