<svg width="25" height="28" viewBox="0 0 25 28" fill="none" xmlns="http://www.w3.org/2000/svg">
<path d="M11.0381 22.75V20.8056H18.8159V13.9028C18.8159 12.0069 18.1556 10.3987 16.835 9.07812C15.5144 7.75752 13.9061 7.09722 12.0103 7.09722C10.1145 7.09722 8.50626 7.75752 7.18566 9.07812C5.86505 10.3987 5.20475 12.0069 5.20475 13.9028V19.8333H4.23253C3.69781 19.8333 3.24005 19.6429 2.85927 19.2622C2.47848 18.8814 2.28809 18.4236 2.28809 17.8889V15.9444C2.28809 15.6042 2.37316 15.2841 2.54329 14.9844C2.71343 14.6846 2.95244 14.4456 3.26031 14.2674L3.33322 12.9792C3.46285 11.8773 3.78288 10.8565 4.29329 9.91667C4.80371 8.97685 5.44376 8.15856 6.21343 7.46181C6.98311 6.76505 7.86621 6.22222 8.86274 5.83333C9.85927 5.44444 10.9085 5.25 12.0103 5.25C13.1122 5.25 14.1573 5.44444 15.1457 5.83333C16.1342 6.22222 17.0173 6.76099 17.795 7.44965C18.5728 8.13831 19.2129 8.95255 19.7152 9.89236C20.2175 10.8322 20.5416 11.853 20.6874 12.9549L20.7603 14.2188C21.0682 14.3646 21.3072 14.5833 21.4773 14.875C21.6475 15.1667 21.7325 15.4745 21.7325 15.7986V18.0347C21.7325 18.3588 21.6475 18.6667 21.4773 18.9583C21.3072 19.25 21.0682 19.4688 20.7603 19.6146V20.8056C20.7603 21.3403 20.5699 21.798 20.1891 22.1788C19.8083 22.5596 19.3506 22.75 18.8159 22.75H11.0381ZM9.09364 15.9444C8.81818 15.9444 8.58728 15.8513 8.40093 15.6649C8.21459 15.4786 8.12142 15.2477 8.12142 14.9722C8.12142 14.6968 8.21459 14.4659 8.40093 14.2795C8.58728 14.0932 8.81818 14 9.09364 14C9.3691 14 9.60001 14.0932 9.78635 14.2795C9.97269 14.4659 10.0659 14.6968 10.0659 14.9722C10.0659 15.2477 9.97269 15.4786 9.78635 15.6649C9.60001 15.8513 9.3691 15.9444 9.09364 15.9444ZM14.927 15.9444C14.6515 15.9444 14.4206 15.8513 14.2343 15.6649C14.0479 15.4786 13.9548 15.2477 13.9548 14.9722C13.9548 14.6968 14.0479 14.4659 14.2343 14.2795C14.4206 14.0932 14.6515 14 14.927 14C15.2024 14 15.4333 14.0932 15.6197 14.2795C15.806 14.4659 15.8992 14.6968 15.8992 14.9722C15.8992 15.2477 15.806 15.4786 15.6197 15.6649C15.4333 15.8513 15.2024 15.9444 14.927 15.9444ZM6.20128 14.4375C6.08785 12.7199 6.60637 11.2454 7.75684 10.0139C8.9073 8.78241 10.3413 8.16667 12.0589 8.16667C13.501 8.16667 14.769 8.62442 15.8627 9.53993C16.9565 10.4554 17.6168 11.6262 17.8436 13.0521C16.3691 13.0359 15.012 12.6389 13.7725 11.8611C12.5329 11.0833 11.5809 10.0301 10.9166 8.70139C10.6573 9.99768 10.1104 11.1522 9.27593 12.1649C8.44144 13.1777 7.41656 13.9352 6.20128 14.4375Z" fill="white"/>
</svg>
