<svg width="24" height="30" viewBox="0 0 24 30" fill="none" xmlns="http://www.w3.org/2000/svg">
<path d="M6 27H18V22.5C18 20.85 17.4125 19.4375 16.2375 18.2625C15.0625 17.0875 13.65 16.5 12 16.5C10.35 16.5 8.9375 17.0875 7.7625 18.2625C6.5875 19.4375 6 20.85 6 22.5V27V27M12 13.5C13.65 13.5 15.0625 12.9125 16.2375 11.7375C17.4125 10.5625 18 9.15 18 7.5V3H6V7.5C6 9.15 6.5875 10.5625 7.7625 11.7375C8.9375 12.9125 10.35 13.5 12 13.5V13.5M0 30V27H3V22.5C3 20.975 3.35625 19.5437 4.06875 18.2062C4.78125 16.8687 5.775 15.8 7.05 15C5.775 14.2 4.78125 13.1312 4.06875 11.7937C3.35625 10.4562 3 9.025 3 7.5V3H0V0H24V3H21V7.5C21 9.025 20.6437 10.4562 19.9312 11.7937C19.2187 13.1312 18.225 14.2 16.95 15C18.225 15.8 19.2187 16.8687 19.9312 18.2062C20.6437 19.5437 21 20.975 21 22.5V27H24V30H0V30" fill="#94A3B8"/>
</svg>
