<svg width="20" height="24" viewBox="0 0 20 24" fill="none" xmlns="http://www.w3.org/2000/svg">
<path d="M4.58332 11.1666L1.66666 9.49992V6.16658L4.58332 4.49992L7.49999 6.16658V9.49992L4.58332 11.1666ZM4.58332 9.24992L5.83332 8.54158V7.12492L4.58332 6.41658L3.33332 7.12492V8.54158L4.58332 9.24992ZM13.75 11.8124V9.87492L16.6667 11.5833V17.4166L11.6667 20.3333L6.66666 17.4166V11.5833L9.58332 9.87492V11.8124L8.33332 12.5416V16.4583L11.6667 18.3958L15 16.4583V12.5416L13.75 11.8124ZM10.8333 13.6666V3.66658H18.3333L16.6667 6.16658L18.3333 8.66658H12.5V13.6666H10.8333Z" fill="#9CA3AF"/>
</svg>
