<svg width="27" height="30" viewBox="0 0 27 30" fill="none" xmlns="http://www.w3.org/2000/svg">
<path d="M3 27H24V24V24V24H3V24V24V27V27M7.95 21H19.05L18.1875 15H8.8125L7.95 21V21M0 30V24C0 23.175 0.29375 22.4688 0.88125 21.8813C1.46875 21.2938 2.175 21 3 21H4.95L5.775 15H1.5V12H25.5V15H21.225L22.05 21H24C24.825 21 25.5312 21.2938 26.1187 21.8813C26.7062 22.4688 27 23.175 27 24V30H0V30M5.6625 12L3 0C3.825 0.625 4.675 1.2125 5.55 1.7625C6.425 2.3125 7.3875 2.5875 8.4375 2.5875C9.4375 2.5875 10.3563 2.33125 11.1938 1.81875C12.0313 1.30625 12.8 0.7 13.5 0C14.2 0.7 14.9687 1.30625 15.8062 1.81875C16.6437 2.33125 17.5625 2.5875 18.5625 2.5875C19.6125 2.5875 20.575 2.3125 21.45 1.7625C22.325 1.2125 23.175 0.625 24 0L21.3375 12H18.2625L19.725 5.5125C19.725 5.5125 19.6313 5.525 19.4438 5.55C19.2563 5.575 18.9625 5.5875 18.5625 5.5875C17.6625 5.5875 16.7812 5.45 15.9187 5.175C15.0562 4.9 14.25 4.5125 13.5 4.0125C12.775 4.5125 11.9937 4.9 11.1562 5.175C10.3188 5.45 9.4625 5.5875 8.5875 5.5875C8.1375 5.5875 7.80625 5.575 7.59375 5.55C7.38125 5.525 7.275 5.5125 7.275 5.5125L8.7375 12H5.6625V12M13.5 15V15V15V15V15V15M13.5 12V12V12V12V12V12V12V12V12V12V12V12V12M13.5 27V27V27V27V27V27V27V27V27V27" fill="#94A3B8"/>
</svg>
