<svg width="20" height="24" viewBox="0 0 20 24" fill="none" xmlns="http://www.w3.org/2000/svg">
<path d="M4.99935 13.6666H11.666V11.9999H4.99935V13.6666ZM4.99935 11.1666H14.9994V9.49992H4.99935V11.1666ZM4.99935 8.66658H14.9994V6.99992H4.99935V8.66658ZM1.66602 20.3333V5.33325C1.66602 4.87492 1.82921 4.48256 2.1556 4.15617C2.48199 3.82978 2.87435 3.66658 3.33268 3.66658H16.666C17.1244 3.66658 17.5167 3.82978 17.8431 4.15617C18.1695 4.48256 18.3327 4.87492 18.3327 5.33325V15.3333C18.3327 15.7916 18.1695 16.1839 17.8431 16.5103C17.5167 16.8367 17.1244 16.9999 16.666 16.9999H4.99935L1.66602 20.3333ZM4.29102 15.3333H16.666V5.33325H3.33268V16.2708L4.29102 15.3333Z" fill="#FAF8FF"/>
</svg>
