<svg width="60" height="72" viewBox="0 0 60 72" fill="none" xmlns="http://www.w3.org/2000/svg">
<path d="M42.875 57.75L27.75 42.5C26.9167 42.8333 26.0729 43.0833 25.2188 43.25C24.3646 43.4167 23.4583 43.5 22.5 43.5C18.3333 43.5 14.7917 42.0417 11.875 39.125C8.95833 36.2083 7.5 32.6667 7.5 28.5C7.5 27 7.70833 25.5729 8.125 24.2188C8.54167 22.8646 9.125 21.5833 9.875 20.375L19 29.5L23.5 25L14.375 15.875C15.5833 15.125 16.8646 14.5417 18.2188 14.125C19.5729 13.7083 21 13.5 22.5 13.5C26.6667 13.5 30.2083 14.9583 33.125 17.875C36.0417 20.7917 37.5 24.3333 37.5 28.5C37.5 29.4583 37.4167 30.3646 37.25 31.2188C37.0833 32.0729 36.8333 32.9167 36.5 33.75L51.75 48.875C52.25 49.375 52.5 49.9792 52.5 50.6875C52.5 51.3958 52.25 52 51.75 52.5L46.5 57.75C46 58.25 45.3958 58.5 44.6875 58.5C43.9792 58.5 43.375 58.25 42.875 57.75ZM44.6875 52.4375L46.375 50.75L30.375 34.75C31.125 33.9167 31.6667 32.9479 32 31.8438C32.3333 30.7396 32.5 29.625 32.5 28.5C32.5 26 31.6979 23.8229 30.0938 21.9688C28.4896 20.1146 26.5 19 24.125 18.625L28.75 23.25C29.25 23.75 29.5 24.3333 29.5 25C29.5 25.6667 29.25 26.25 28.75 26.75L20.75 34.75C20.25 35.25 19.6667 35.5 19 35.5C18.3333 35.5 17.75 35.25 17.25 34.75L12.625 30.125C13 32.5 14.1146 34.4896 15.9688 36.0938C17.8229 37.6979 20 38.5 22.5 38.5C23.5833 38.5 24.6667 38.3333 25.75 38C26.8333 37.6667 27.8125 37.1458 28.6875 36.4375L44.6875 52.4375Z" fill="#FAF8FF"/>
</svg>
