<svg width="25" height="28" viewBox="0 0 25 28" fill="none" xmlns="http://www.w3.org/2000/svg">
<path d="M17.0167 22.4583L11.1348 16.5278C10.8107 16.6574 10.4826 16.7546 10.1504 16.8194C9.81821 16.8843 9.46578 16.9167 9.0931 16.9167C7.47273 16.9167 6.09541 16.3495 4.96115 15.2153C3.8269 14.081 3.25977 12.7037 3.25977 11.0833C3.25977 10.5 3.34078 9.94502 3.50282 9.4184C3.66486 8.89178 3.89171 8.39352 4.18338 7.92361L7.73199 11.4722L9.48199 9.72222L5.93338 6.17361C6.40328 5.88194 6.90155 5.65509 7.42817 5.49306C7.95479 5.33102 8.50977 5.25 9.0931 5.25C10.7135 5.25 12.0908 5.81713 13.225 6.95139C14.3593 8.08565 14.9264 9.46296 14.9264 11.0833C14.9264 11.456 14.894 11.8084 14.8292 12.1406C14.7644 12.4728 14.6672 12.8009 14.5375 13.125L20.4681 19.0069C20.6625 19.2014 20.7598 19.4363 20.7598 19.7118C20.7598 19.9873 20.6625 20.2222 20.4681 20.4167L18.4264 22.4583C18.232 22.6528 17.997 22.75 17.7216 22.75C17.4461 22.75 17.2112 22.6528 17.0167 22.4583ZM17.7216 20.3924L18.3778 19.7361L12.1556 13.5139C12.4473 13.1898 12.6579 12.8131 12.7875 12.3837C12.9172 11.9543 12.982 11.5208 12.982 11.0833C12.982 10.1111 12.6701 9.26447 12.0462 8.5434C11.4224 7.82234 10.6487 7.38889 9.72504 7.24306L11.5237 9.04167C11.7181 9.23611 11.8153 9.46296 11.8153 9.72222C11.8153 9.98148 11.7181 10.2083 11.5237 10.4028L8.41254 13.5139C8.2181 13.7083 7.99125 13.8056 7.73199 13.8056C7.47273 13.8056 7.24588 13.7083 7.05143 13.5139L5.25282 11.7153C5.39865 12.6389 5.8321 13.4126 6.55317 14.0365C7.27423 14.6603 8.12088 14.9722 9.0931 14.9722C9.5144 14.9722 9.93569 14.9074 10.357 14.7778C10.7783 14.6481 11.1591 14.4456 11.4993 14.1701L17.7216 20.3924Z" fill="#6B7280"/>
</svg>
