<svg width="25" height="28" viewBox="0 0 25 28" fill="none" xmlns="http://www.w3.org/2000/svg">
<path d="M6.66265 21.7778C5.18811 21.7778 3.92828 21.2674 2.88314 20.2466C1.838 19.2257 1.31543 17.9781 1.31543 16.5035C1.31543 15.2396 1.69622 14.1135 2.45779 13.1251C3.21936 12.1366 4.21589 11.5047 5.44737 11.2292C5.72284 10.0626 6.41149 8.9526 7.51335 7.89936C8.6152 6.84612 9.78997 6.3195 11.0377 6.3195C11.5724 6.3195 12.0301 6.50989 12.4109 6.89068C12.7917 7.27147 12.9821 7.72922 12.9821 8.26394V14.1459L14.5377 12.6389L15.8988 14.0001L12.0099 17.8889L8.12099 14.0001L9.4821 12.6389L11.0377 14.1459V8.26394C9.80617 8.4908 8.85015 9.08628 8.1696 10.0504C7.48904 11.0145 7.14876 12.007 7.14876 13.0278H6.66265C5.72284 13.0278 4.92075 13.36 4.2564 14.0244C3.59205 14.6887 3.25987 15.4908 3.25987 16.4306C3.25987 17.3704 3.59205 18.1725 4.2564 18.8369C4.92075 19.5012 5.72284 19.8334 6.66265 19.8334H18.3293C19.0099 19.8334 19.5851 19.5984 20.055 19.1285C20.5249 18.6586 20.7599 18.0834 20.7599 17.4028C20.7599 16.7223 20.5249 16.147 20.055 15.6771C19.5851 15.2072 19.0099 14.9723 18.3293 14.9723H16.871V13.0278C16.871 12.2501 16.6927 11.5249 16.3363 10.8525C15.9798 10.18 15.5099 9.60885 14.9265 9.13894V6.87853C16.1256 7.44566 17.0735 8.2842 17.7703 9.39415C18.4671 10.5041 18.8154 11.7153 18.8154 13.0278C19.9335 13.1575 20.8611 13.6395 21.5984 14.474C22.3357 15.3085 22.7043 16.2848 22.7043 17.4028C22.7043 18.6181 22.279 19.6511 21.4283 20.5018C20.5776 21.3525 19.5446 21.7778 18.3293 21.7778H6.66265Z" fill="#C084FC"/>
</svg>
