<svg width="30" height="26" viewBox="0 0 30 26" fill="none" xmlns="http://www.w3.org/2000/svg">
<path d="M28.5 12C28.075 12 27.7187 11.8563 27.4312 11.5688C27.1437 11.2813 27 10.925 27 10.5C27 10.075 27.1437 9.71875 27.4312 9.43125C27.7187 9.14375 28.075 9 28.5 9C28.925 9 29.2813 9.14375 29.5688 9.43125C29.8563 9.71875 30 10.075 30 10.5C30 10.925 29.8563 11.2813 29.5688 11.5688C29.2813 11.8563 28.925 12 28.5 12V12M27 7.5V0H30V7.5H27V7.5M12 13.5C10.35 13.5 8.9375 12.9125 7.7625 11.7375C6.5875 10.5625 6 9.15 6 7.5C6 5.85 6.5875 4.4375 7.7625 3.2625C8.9375 2.0875 10.35 1.5 12 1.5C13.65 1.5 15.0625 2.0875 16.2375 3.2625C17.4125 4.4375 18 5.85 18 7.5C18 9.15 17.4125 10.5625 16.2375 11.7375C15.0625 12.9125 13.65 13.5 12 13.5V13.5M0 25.5V21.3C0 20.45 0.21875 19.6687 0.65625 18.9562C1.09375 18.2437 1.675 17.7 2.4 17.325C3.95 16.55 5.525 15.9688 7.125 15.5813C8.725 15.1938 10.35 15 12 15C13.65 15 15.275 15.1938 16.875 15.5813C18.475 15.9688 20.05 16.55 21.6 17.325C22.325 17.7 22.9062 18.2437 23.3438 18.9562C23.7812 19.6687 24 20.45 24 21.3V25.5H0V25.5M3 22.5H21V21.3C21 21.025 20.9313 20.775 20.7938 20.55C20.6563 20.325 20.475 20.15 20.25 20.025C18.9 19.35 17.5375 18.8438 16.1625 18.5063C14.7875 18.1688 13.4 18 12 18C10.6 18 9.2125 18.1688 7.8375 18.5063C6.4625 18.8438 5.1 19.35 3.75 20.025C3.525 20.15 3.34375 20.325 3.20625 20.55C3.06875 20.775 3 21.025 3 21.3V22.5V22.5M12 10.5C12.825 10.5 13.5312 10.2062 14.1187 9.61875C14.7062 9.03125 15 8.325 15 7.5C15 6.675 14.7062 5.96875 14.1187 5.38125C13.5312 4.79375 12.825 4.5 12 4.5C11.175 4.5 10.4688 4.79375 9.88125 5.38125C9.29375 5.96875 9 6.675 9 7.5C9 8.325 9.29375 9.03125 9.88125 9.61875C10.4688 10.2062 11.175 10.5 12 10.5V10.5M12 7.5V7.5V7.5V7.5V7.5V7.5V7.5V7.5V7.5V7.5M12 22.5V22.5V22.5V22.5V22.5V22.5V22.5V22.5V22.5V22.5V22.5V22.5V22.5" fill="#94A3B8"/>
</svg>
