<svg width="25" height="28" viewBox="0 0 25 28" fill="none" xmlns="http://www.w3.org/2000/svg">
<path d="M4.23253 14.9722V16.9166H19.7881V14.9722H4.23253ZM4.23253 4.27772H19.7881C20.3228 4.27772 20.7806 4.46812 21.1614 4.8489C21.5421 5.22969 21.7325 5.68744 21.7325 6.22217V16.9166C21.7325 17.4513 21.5421 17.9091 21.1614 18.2899C20.7806 18.6707 20.3228 18.8611 19.7881 18.8611H15.8992V23.7222L12.0103 21.7777L8.12142 23.7222V18.8611H4.23253C3.69781 18.8611 3.24005 18.6707 2.85927 18.2899C2.47848 17.9091 2.28809 17.4513 2.28809 16.9166V6.22217C2.28809 5.68744 2.47848 5.22969 2.85927 4.8489C3.24005 4.46812 3.69781 4.27772 4.23253 4.27772ZM4.23253 12.0555H19.7881V6.22217H4.23253V12.0555Z" fill="#6B7280"/>
</svg>
