<svg width="25" height="28" viewBox="0 0 25 28" fill="none" xmlns="http://www.w3.org/2000/svg">
<path d="M21.732 8.16672V19.8334C21.732 20.3681 21.5416 20.8259 21.1609 21.2067C20.7801 21.5874 20.3223 21.7778 19.7876 21.7778H4.23204C3.69732 21.7778 3.23957 21.5874 2.85878 21.2067C2.47799 20.8259 2.2876 20.3681 2.2876 19.8334V8.16672C2.2876 7.632 2.47799 7.17424 2.85878 6.79346C3.23957 6.41267 3.69732 6.22228 4.23204 6.22228H19.7876C20.3223 6.22228 20.7801 6.41267 21.1609 6.79346C21.5416 7.17424 21.732 7.632 21.732 8.16672ZM4.23204 10.1112H19.7876V8.16672H4.23204V10.1112ZM4.23204 14.0001V19.8334H19.7876V14.0001H4.23204Z" fill="#9CA3AF"/>
</svg>
