<svg width="25" height="28" viewBox="0 0 25 28" fill="none" xmlns="http://www.w3.org/2000/svg">
<path d="M19.7876 9.13883L18.864 7.14578L16.8709 6.22217L18.864 5.29856L19.7876 3.3055L20.7112 5.29856L22.7043 6.22217L20.7112 7.14578L19.7876 9.13883ZM8.60704 9.13883L7.68343 7.14578L5.69038 6.22217L7.68343 5.29856L8.60704 3.3055L9.53065 5.29856L11.5237 6.22217L9.53065 7.14578L8.60704 9.13883ZM19.7876 20.3194L18.864 18.3263L16.8709 17.4027L18.864 16.4791L19.7876 14.4861L20.7112 16.4791L22.7043 17.4027L20.7112 18.3263L19.7876 20.3194ZM5.30149 23.4305L2.57926 20.7083C2.38482 20.5138 2.2876 20.2789 2.2876 20.0034C2.2876 19.728 2.38482 19.493 2.57926 19.2986L13.4195 8.45828C13.614 8.26383 13.8489 8.16661 14.1244 8.16661C14.3999 8.16661 14.6348 8.26383 14.8293 8.45828L17.5515 11.1805C17.7459 11.3749 17.8432 11.6099 17.8432 11.8854C17.8432 12.1608 17.7459 12.3958 17.5515 12.5902L6.71121 23.4305C6.51676 23.6249 6.28181 23.7222 6.00635 23.7222C5.73089 23.7222 5.49593 23.6249 5.30149 23.4305ZM6.03065 21.3888L12.982 14.3888L11.6209 13.0277L4.62093 19.9791L6.03065 21.3888Z" fill="#C99BFF"/>
</svg>
