<svg width="32" height="38" viewBox="0 0 32 38" fill="none" xmlns="http://www.w3.org/2000/svg">
<path d="M27.875 12.4028V28.2361C27.875 28.9618 27.6166 29.583 27.0998 30.0998C26.583 30.6166 25.9618 30.875 25.2361 30.875H6.76389C6.03819 30.875 5.41696 30.6166 4.90017 30.0998C4.38339 29.583 4.125 28.9618 4.125 28.2361V9.76389C4.125 9.03819 4.38339 8.41696 4.90017 7.90017C5.41696 7.38339 6.03819 7.125 6.76389 7.125H22.5972L27.875 12.4028ZM25.2361 13.5243L21.4757 9.76389H6.76389V28.2361H25.2361V13.5243ZM16 26.9167C17.0995 26.9167 18.0341 26.5318 18.8038 25.7622C19.5735 24.9925 19.9583 24.0579 19.9583 22.9583C19.9583 21.8588 19.5735 20.9242 18.8038 20.1545C18.0341 19.3848 17.0995 19 16 19C14.9005 19 13.9659 19.3848 13.1962 20.1545C12.4265 20.9242 12.0417 21.8588 12.0417 22.9583C12.0417 24.0579 12.4265 24.9925 13.1962 25.7622C13.9659 26.5318 14.9005 26.9167 16 26.9167ZM8.08333 16.3611H19.9583V11.0833H8.08333V16.3611ZM6.76389 13.5243V28.2361V9.76389V13.5243Z" fill="#C99BFF"/>
</svg>
