<svg width="20" height="24" viewBox="0 0 20 24" fill="none" xmlns="http://www.w3.org/2000/svg">
<path d="M3.79164 17.8333C3.0833 17.8333 2.53469 17.5867 2.1458 17.0937C1.75692 16.6006 1.61108 15.9999 1.7083 15.2916L2.5833 9.04158C2.7083 8.20825 3.07983 7.52075 3.69789 6.97908C4.31594 6.43742 5.04164 6.16658 5.87497 6.16658H14.125C14.9583 6.16658 15.684 6.43742 16.3021 6.97908C16.9201 7.52075 17.2916 8.20825 17.4166 9.04158L18.2916 15.2916C18.3889 15.9999 18.243 16.6006 17.8541 17.0937C17.4653 17.5867 16.9166 17.8333 16.2083 17.8333C15.9166 17.8333 15.6458 17.7812 15.3958 17.677C15.1458 17.5728 14.9166 17.4166 14.7083 17.2083L12.8333 15.3333H7.16664L5.29164 17.2083C5.0833 17.4166 4.85414 17.5728 4.60414 17.677C4.35414 17.7812 4.0833 17.8333 3.79164 17.8333ZM4.12497 16.0416L6.49997 13.6666H13.5L15.875 16.0416C15.9028 16.0694 16.0139 16.111 16.2083 16.1666C16.3611 16.1666 16.4826 16.1214 16.5729 16.0312C16.6632 15.9409 16.6944 15.8194 16.6666 15.6666L15.75 9.24992C15.6944 8.84714 15.5139 8.51033 15.2083 8.2395C14.9028 7.96867 14.5416 7.83325 14.125 7.83325H5.87497C5.4583 7.83325 5.09719 7.96867 4.79164 8.2395C4.48608 8.51033 4.30553 8.84714 4.24997 9.24992L3.3333 15.6666C3.30553 15.8194 3.33678 15.9409 3.42705 16.0312C3.51733 16.1214 3.63886 16.1666 3.79164 16.1666C3.81942 16.1666 3.93053 16.1249 4.12497 16.0416ZM14.1666 12.8333C14.4028 12.8333 14.6007 12.7534 14.7604 12.5937C14.9201 12.4339 15 12.236 15 11.9999C15 11.7638 14.9201 11.5659 14.7604 11.4062C14.6007 11.2464 14.4028 11.1666 14.1666 11.1666C13.9305 11.1666 13.7326 11.2464 13.5729 11.4062C13.4132 11.5659 13.3333 11.7638 13.3333 11.9999C13.3333 12.236 13.4132 12.4339 13.5729 12.5937C13.7326 12.7534 13.9305 12.8333 14.1666 12.8333ZM12.5 10.3333C12.7361 10.3333 12.934 10.2534 13.0937 10.0937C13.2534 9.93395 13.3333 9.73603 13.3333 9.49992C13.3333 9.26381 13.2534 9.06589 13.0937 8.90617C12.934 8.74645 12.7361 8.66658 12.5 8.66658C12.2639 8.66658 12.0659 8.74645 11.9062 8.90617C11.7465 9.06589 11.6666 9.26381 11.6666 9.49992C11.6666 9.73603 11.7465 9.93395 11.9062 10.0937C12.0659 10.2534 12.2639 10.3333 12.5 10.3333ZM6.4583 12.8333H7.7083V11.3749H9.16664V10.1249H7.7083V8.66658H6.4583V10.1249H4.99997V11.3749H6.4583V12.8333Z" fill="#9CA3AF"/>
</svg>
